<svg width="114" height="125" viewBox="0 0 114 125" fill="none" xmlns="http://www.w3.org/2000/svg">
<g opacity="0.7" filter="url(#filter0_d)">
<path d="M73 11.417L36.1712 0L0 11.417C0 11.417 0 37.3702 4.6036 51.3451C7.79791 61.0418 19.7297 75.3489 36.1712 84C53.0072 74.9496 64.2312 60.4398 67.7387 51.3451C71.9157 40.5145 73 11.417 73 11.417Z" transform="translate(16 16)" fill="white"/>
</g>
<path d="M5.11946 36.5206H1.66865V43.0857H0V35.1072H5.11946V36.5206ZM9.97784 41.7066H6.6973L6.06162 43.0857H4.39297L8.32054 34.8565H8.38865L12.3049 43.0857H10.6249L9.97784 41.7066ZM7.21946 40.4756H9.46703L8.34324 37.9795L7.21946 40.4756ZM14.8249 43.0857H13.1562V35.1072H16.0395C17.8103 35.1072 19.093 35.7911 19.093 37.6376C19.093 39.484 17.8103 40.2477 16.0395 40.2477H14.8135V43.0857H14.8249ZM15.6195 38.8799C16.9022 38.8799 17.447 38.6178 17.447 37.6376C17.447 36.6573 16.7886 36.4978 15.6195 36.4978H14.8249V38.8799H15.6195ZM24.3259 41.7066H21.0454L20.4097 43.0971H18.7297L22.6573 34.8679H22.7254L26.6416 43.0971H24.973L24.3259 41.7066ZM21.5562 40.4756H23.8038L22.68 37.9795L21.5562 40.4756ZM29.1616 43.0857H27.493V35.1072H29.1616V38.3556H32.7486V35.1072H34.3946V43.0857H32.7486V39.712H29.1616V43.0857ZM42 36.5206H39.5822V43.0857H37.9135V36.5206H35.4957V35.1072H42V36.5206ZM20.5573 8.86942V0.0133067C18.1281 -0.0550803 16.0735 0.150081 13.7238 0.400833C11.147 0.856746 9.10378 1.59761 8.24108 2.98814L20.5573 8.86942ZM19.0135 19.4808L18.8886 23.869C15.4605 20.746 12.9065 17.0987 11.6238 12.2774L18.8432 15.4574V11.9696L7.88919 6.73803C8.70649 20.3698 14.28 24.6896 20.5573 29.8642V19.4808H19.0135Z" transform="translate(32 27.0015)" fill="#000D41"/>
<path d="M18.9568 8.86996V0.0138445C18.9681 0.0138445 18.9908 0.0138445 19.0022 0.0138445C21.4541 -0.0545425 23.52 0.139221 25.8811 0.401371C28.7416 0.902875 30.9438 1.76911 31.6022 3.46739L19.0362 8.91555L18.9568 8.86996ZM6.64054 2.98868C7.15135 2.17943 8.05946 1.58675 9.25135 1.14223C8.05946 1.58675 7.14 2.17943 6.64054 2.98868ZM20.773 12.0272V15.3895L27.8335 12.2665C26.5622 17.0992 23.9968 20.7351 20.5686 23.8581L20.4438 19.4699H18.9454V29.8648C18.9568 29.8762 18.9681 29.8762 18.9681 29.8876H19.0135C25.2341 24.7699 30.7508 20.5185 31.693 7.29706L20.773 12.0272ZM0.783243 48.3634H1.46432C1.57784 49.3779 2.29297 50.0731 3.3373 50.0731C4.46108 50.0731 5.22162 49.2525 5.22162 48.0671C5.22162 46.8817 4.46108 46.0611 3.3373 46.0611C2.31568 46.0611 1.60054 46.7222 1.47568 47.7138H0.794595V46.1523H0V49.9819H0.794595V48.3634H0.783243ZM2.23622 48.0671C2.23622 47.2009 2.69027 46.7564 3.3373 46.7564C3.99568 46.7564 4.40432 47.2579 4.40432 48.0671C4.40432 48.8764 3.98432 49.3779 3.3373 49.3779C2.69027 49.3779 2.23622 48.9333 2.23622 48.0671ZM6.48162 47.2693H5.80054V51.0647H6.53838V49.5944C6.75405 49.9933 7.10595 50.0617 7.37838 50.0617C8.10486 50.0617 8.59297 49.5374 8.59297 48.6256C8.59297 47.7138 8.11622 47.1895 7.37838 47.1895C7.04919 47.1895 6.6973 47.3376 6.47027 47.7138V47.2693H6.48162ZM6.51568 48.6142C6.51568 48.0899 6.76541 47.7822 7.18541 47.7822C7.65081 47.7822 7.84378 48.1697 7.84378 48.6142C7.84378 49.0587 7.65081 49.4462 7.18541 49.4462C6.77676 49.4576 6.51568 49.1499 6.51568 48.6142ZM9.93243 48.751V47.2693H9.19459V50.0959H9.22865L11.0222 48.5002V49.9819H11.76V47.1553H11.7259L9.93243 48.751ZM12.2254 49.3779V50.7798H12.9519V49.9705H14.7454V50.7684H15.4719V49.3665H15.0973V47.2693H12.9405C12.9292 47.1325 12.9632 48.2837 12.8611 48.7282C12.7703 49.1271 12.5546 49.3779 12.3503 49.3779H12.2254ZM14.3481 47.8733V49.3665H13.247C13.4854 49.1613 13.5762 48.6826 13.5989 48.3179C13.6103 48.1241 13.6103 48.0899 13.6103 47.8733H14.3481ZM16.7319 48.751V47.2693H15.9941V50.0959H16.0281L17.8216 48.5002V49.9819H18.5595V47.1553H18.5254L16.7319 48.751ZM20.8638 48.3862C20.7162 48.5002 20.5459 48.58 20.3416 48.58C19.9784 48.58 19.8876 48.409 19.8876 47.8847V47.2693H19.1497V48.1355C19.1497 49.0929 19.8422 49.1727 20.16 49.1727C20.4551 49.1727 20.7049 49.0587 20.8638 48.9219V49.9705H21.6016V47.2579H20.8638V48.3862ZM22.1805 48.6256C22.1805 49.4804 22.6573 50.0731 23.6335 50.0731C24.0989 50.0731 24.5416 49.925 24.8254 49.5488L24.3941 49.1271C24.167 49.3893 23.8832 49.4576 23.6222 49.4576C23.3157 49.4576 22.9297 49.2753 22.9184 48.865H24.8595V48.58C24.8595 47.6682 24.3827 47.1781 23.5313 47.1781C22.8276 47.1781 22.1805 47.7138 22.1805 48.6256ZM23.5654 47.7822C23.94 47.7822 24.1216 47.9873 24.1557 48.3521H22.9524C22.9978 47.9645 23.2589 47.7822 23.5654 47.7822ZM26.0741 48.6256C26.0741 48.1697 26.3351 47.7822 26.7778 47.7822C27.107 47.7822 27.3454 47.9075 27.4703 48.1127L27.9584 47.7138C27.7086 47.3832 27.3113 47.1781 26.7778 47.1781C25.8697 47.1781 25.3249 47.7822 25.3249 48.637C25.3249 49.4918 25.8697 50.0617 26.7778 50.0617C27.3113 50.0617 27.72 49.8566 27.9584 49.526L27.4703 49.1271C27.3454 49.3323 27.107 49.4576 26.7892 49.4576C26.3238 49.4576 26.0741 49.0701 26.0741 48.6256ZM28.5486 47.2693V49.9819H29.2865V48.6598L30.3081 49.9819H31.2503L30.047 48.58V48.5458L31.1822 47.2693H30.3081L29.2978 48.5116V47.2693H28.5486ZM32.3854 48.751V47.2693H31.6476V50.0959H31.6816L33.4751 48.5002V49.9819H34.213V47.1553H34.1789L32.3854 48.751ZM35.6546 48.751V47.2693H34.9168V50.0959H34.9508L36.7443 48.5002V49.9819H37.4822V47.1553H37.4481L35.6546 48.751ZM36.54 46.0725C36.54 46.289 36.4605 46.4714 36.2449 46.4714C36.0292 46.4714 35.9497 46.289 35.9497 46.0725H35.3368C35.3368 46.574 35.5184 46.9615 36.2335 46.9615C36.9486 46.9615 37.153 46.5626 37.153 46.0725H36.54ZM11.8622 54.3131V52.2045H11.1243V54.9172H13.3605V55.715H14.087V54.3131H13.6443V52.2045H12.9065V54.3017H11.8622V54.3131ZM14.3708 53.5609C14.3708 54.4157 14.8476 55.0084 15.8238 55.0084C16.2892 55.0084 16.7319 54.8602 17.0157 54.4841L16.5957 54.0624C16.3686 54.3245 16.0849 54.3929 15.8238 54.3929C15.5173 54.3929 15.1314 54.2105 15.12 53.8002H17.0611V53.5153C17.0611 52.6034 16.5843 52.1133 15.733 52.1133C15.0065 52.1133 14.3708 52.649 14.3708 53.5609ZM15.7443 52.7174C16.1189 52.7174 16.3005 52.9226 16.3346 53.2873H15.1313C15.1768 52.8998 15.4492 52.7174 15.7443 52.7174ZM18.3778 53.823H19.4335V54.9172H20.1714V52.2045H19.4335V53.2189H18.3778V52.2045H17.64V54.9172H18.3778V53.823ZM21.5562 52.8086V54.9058H22.2941V52.8086H23.1454V52.2045H20.7049V52.8086H21.5562ZM24.3486 52.2045H23.6676V56H24.4054V54.5297C24.6211 54.9286 24.973 54.997 25.2454 54.997C25.9719 54.997 26.46 54.4727 26.46 53.5609C26.46 52.649 25.9832 52.1247 25.2454 52.1247C24.9162 52.1247 24.5643 52.2729 24.3373 52.649V52.2045H24.3486ZM24.3827 53.5495C24.3827 53.0252 24.6324 52.7174 25.0524 52.7174C25.5178 52.7174 25.7108 53.1049 25.7108 53.5495C25.7108 53.994 25.5178 54.3815 25.0524 54.3815C24.6324 54.3929 24.3827 54.0852 24.3827 53.5495Z" transform="translate(33.6006 27)" fill="#C19B48"/>
<defs>
<filter id="filter0_d" x="5.5" y="5.42822" width="108.042" height="119.271" filterUnits="userSpaceOnUse" color-interpolation-filters="sRGB">
<feFlood flood-opacity="0" result="BackgroundImageFix"/>
<feColorMatrix in="SourceAlpha" type="matrix" values="0 0 0 0 0 0 0 0 0 0 0 0 0 0 0 0 0 0 255 0"/>
<feOffset dx="7" dy="7"/>
<feGaussianBlur stdDeviation="8"/>
<feColorMatrix type="matrix" values="0 0 0 0 0 0 0 0 0 0 0 0 0 0 0 0 0 0 0.25 0"/>
<feBlend mode="normal" in2="BackgroundImageFix" result="effect1_dropShadow"/>
<feBlend mode="normal" in="SourceGraphic" in2="effect1_dropShadow" result="shape"/>
</filter>
</defs>
</svg>
