<?xml version="1.0" encoding="utf-8"?><svg xmlns="http://www.w3.org/2000/svg" xmlns:xlink="http://www.w3.org/1999/xlink"><symbol viewBox="0 0 20 16" id="arrow-next"><path fill-rule="evenodd" clip-rule="evenodd" d="M13.343.929L18.414 6h-2.828l-3.657-3.657A1 1 0 1 1 13.343.929zM16.586 7h2.828l.293.293a1 1 0 0 1 0 1.414L19.414 9H0V7h16.586zm-1 3l-3.657 3.657a1 1 0 1 0 1.414 1.414L18.414 10h-2.828z"/></symbol><symbol viewBox="0 0 25 28" id="contacts-address"><path fill-rule="evenodd" clip-rule="evenodd" d="M1 4.398H0v.094l.003.258a74.152 74.152 0 0 0 .173 4.1c.174 2.458.526 5.539 1.263 7.748.542 1.626 1.781 3.534 3.479 5.344a24.65 24.65 0 0 0 6.522 4.945l.466.242.464-.246c5.265-2.795 8.824-7.288 9.976-10.238.689-1.764 1.092-4.877 1.329-7.421a99.62 99.62 0 0 0 .32-4.686l.003-.075.001-.02v-.007L23 4.398l1 .038.018-.486-.37-.314-.648.762.647-.762-.001-.001-.002-.002-.005-.004-.014-.012a4.056 4.056 0 0 0-.209-.164c-.14-.105-.341-.25-.604-.422a16.678 16.678 0 0 0-2.289-1.244C18.528.89 15.613 0 11.901 0 8.187 0 5.32.89 3.369 1.791c-.975.45-1.72.904-2.227 1.25a10.477 10.477 0 0 0-.741.554 3.948 3.948 0 0 0-.045.038l-.014.012-.005.004-.002.002s-.001.001.665.747zm1.005.481c.075-.055.163-.117.263-.186a13.567 13.567 0 0 1 1.94-1.086C5.933 2.809 8.515 2 11.9 2c3.386 0 6.022.81 7.801 1.61.89.402 1.566.8 2.014 1.093.098.065.185.124.261.177a97.662 97.662 0 0 1-.294 4.158c-.24 2.592-.63 5.42-1.2 6.88-.931 2.384-3.966 6.343-8.587 8.945a22.702 22.702 0 0 1-5.52-4.29c-1.58-1.684-2.62-3.348-3.04-4.608-.65-1.95-.992-4.811-1.165-7.256a72.153 72.153 0 0 1-.166-3.83zM1 4.398l-.666-.746L0 3.95v.448h1z"/><path fill-rule="evenodd" clip-rule="evenodd" d="M12 14a3 3 0 1 0 0-6 3 3 0 0 0 0 6zm0 2a5 5 0 1 0 0-10 5 5 0 0 0 0 10z"/></symbol><symbol viewBox="0 0 24 24" id="contacts-email"><path d="M20.484 3.516A11.915 11.915 0 0 0 12 0C8.793 0 5.784 1.25 3.516 3.516A11.915 11.915 0 0 0 0 12c0 3.207 1.25 6.216 3.516 8.484A11.915 11.915 0 0 0 12 24c1.953 0 3.885-.477 5.602-1.387a.885.885 0 0 0-.827-1.564A10.243 10.243 0 0 1 12 22.23C6.359 22.23 1.77 17.642 1.77 12 1.77 6.359 6.36 1.77 12 1.77S22.23 6.36 22.23 12c0 1.898-.532 2.98-.98 3.55-.476.616-1.116.965-1.755.965-.89 0-1.79-.708-1.79-2.292v-6.89a.888.888 0 0 0-.885-.885.888.888 0 0 0-.886.885v.388A6.073 6.073 0 0 0 5.557 12a6.08 6.08 0 0 0 6.074 6.074c.595 0 1.18-.084 1.741-.256a.888.888 0 0 0 .595-1.102.888.888 0 0 0-1.101-.595 4.362 4.362 0 0 1-1.235.182A4.308 4.308 0 0 1 7.328 12a4.308 4.308 0 0 1 4.303-4.303A4.305 4.305 0 0 1 15.934 12v2.223c0 2.665 1.79 4.062 3.561 4.062 1.185 0 2.336-.6 3.152-1.647C23.534 15.502 24 13.898 24 12c0-3.207-1.25-6.216-3.516-8.484z"/></symbol><symbol viewBox="0 0 21 26" id="contacts-inn"><path d="M19.816 7.677L13.32 1.185A.612.612 0 0 0 12.89 1H4.065A3.07 3.07 0 0 0 1 4.077v17.846A3.07 3.07 0 0 0 4.065 25h12.87A3.07 3.07 0 0 0 20 21.923V8.108a.617.617 0 0 0-.184-.431zm-6.252-.523v-4l4.321 4.308h-4.014a.276.276 0 0 1-.307-.308zm5.21 14.77a1.842 1.842 0 0 1-1.839 1.845H4.065a1.842 1.842 0 0 1-1.84-1.846V4.077c0-1.02.824-1.846 1.84-1.846h8.274v4.923c0 .85.686 1.538 1.532 1.538h4.903v13.231z"/><path fill-rule="evenodd" clip-rule="evenodd" d="M.85 4.077A3.22 3.22 0 0 1 4.065.85h8.828a.762.762 0 0 1 .533.23l6.495 6.49a.769.769 0 0 1 .23.536v13.817a3.22 3.22 0 0 1-3.215 3.227H4.065A3.22 3.22 0 0 1 .85 21.923V4.077zM4.065 1.15A2.92 2.92 0 0 0 1.15 4.077v17.846a2.92 2.92 0 0 0 2.915 2.927h12.87a2.92 2.92 0 0 0 2.915-2.927V8.11a.467.467 0 0 0-.139-.325L13.212 1.29a.462.462 0 0 0-.323-.139H4.065zm0 1.23c-.932 0-1.69.76-1.69 1.697v17.846c0 .937.758 1.696 1.69 1.696h12.87c.933 0 1.69-.759 1.69-1.696V8.843H13.87c-.93 0-1.682-.757-1.682-1.689V2.381H4.065zm-1.99 1.697c0-1.102.89-1.996 1.99-1.996h8.424v5.073c0 .767.62 1.388 1.382 1.388h5.053v13.381c0 1.102-.89 1.996-1.989 1.996H4.065a1.992 1.992 0 0 1-1.99-1.996V4.077zm11.34-1.284l4.833 4.819H13.88a.425.425 0 0 1-.464-.466v.008h.15l-.15-.018v.01-4.353zm.3.722v3.648l-.002.009a.126.126 0 0 0 .14.141l.01-.001h3.66l-3.808-3.797z"/></symbol><symbol viewBox="0 0 24 24" id="contacts-tel"><path d="M23.998 19.338a3.55 3.55 0 0 0-1.09-2.439c-1.309-1.263-2.405-1.991-3.451-2.294-1.442-.416-2.777-.037-3.968 1.126l-.005.005-1.268 1.258c-.792-.446-2.332-1.426-3.996-3.09l-.124-.124c-1.664-1.664-2.645-3.205-3.09-3.996l1.257-1.268a.682.682 0 0 0 .006-.005C9.432 7.32 9.81 5.985 9.394 4.543 9.092 3.497 8.364 2.4 7.101 1.091A3.55 3.55 0 0 0 4.66.002a3.55 3.55 0 0 0-2.511.91l-.027.025a.99.99 0 0 0-.037.035C.71 2.348-.01 4.274 0 6.543c.02 3.854 2.138 8.262 5.666 11.79a22.851 22.851 0 0 0 2.248 1.958.937.937 0 1 0 1.14-1.488 20.979 20.979 0 0 1-2.062-1.795c-3.187-3.187-5.1-7.103-5.117-10.474-.009-1.747.517-3.206 1.52-4.22l.007-.006a1.686 1.686 0 0 1 2.35.085C8.177 4.91 8.001 6.098 6.93 7.198l-1.738 1.75a.938.938 0 0 0-.19 1.043c.043.099 1.11 2.457 3.769 5.115l.123.123c2.658 2.658 5.016 3.726 5.115 3.77a.937.937 0 0 0 1.042-.191l1.751-1.738c1.1-1.073 2.288-1.248 4.805 1.179.66.635.697 1.667.085 2.348l-.006.008c-1.006.995-2.449 1.52-4.177 1.52h-.043c-1.381-.007-2.981-.386-4.626-1.095a.937.937 0 1 0-.742 1.721c1.9.82 3.704 1.24 5.359 1.249h.052c2.246 0 4.154-.72 5.52-2.086a.918.918 0 0 0 .034-.037l.024-.027a3.55 3.55 0 0 0 .91-2.512z"/></symbol><symbol viewBox="0 0 139.4 44.7" id="dorohovdesign"><path d="M52.2 19.5V8.1H57c3.6 0 6.1 2.1 6.1 5.7 0 3.5-2.6 5.7-6.1 5.7h-4.8zm7.9-5.7c0-1.8-1.1-3.1-3.1-3.1h-1.9v6.2H57c2 0 3.1-1.4 3.1-3.1m4.1 0c0-3.4 2.6-5.9 6.1-5.9 3.5 0 6.1 2.4 6.1 5.9 0 3.5-2.6 5.9-6.1 5.9-3.5 0-6.1-2.4-6.1-5.9m9.2 0c0-1.9-1.2-3.3-3.1-3.3-1.9 0-3.1 1.4-3.1 3.3 0 1.8 1.2 3.3 3.1 3.3 1.9 0 3.1-1.4 3.1-3.3m11 5.7l-1.9-3.8H81v3.8h-2.9V8.1h5.7c2.5 0 3.9 1.7 3.9 3.8 0 2-1.2 3-2.3 3.4l2.3 4.2h-3.3zm.3-7.6c0-.8-.6-1.2-1.4-1.2H81v2.4h2.3c.8 0 1.4-.4 1.4-1.2m4.2 1.9c0-3.4 2.6-5.9 6.1-5.9 3.5 0 6.1 2.4 6.1 5.9 0 3.5-2.6 5.9-6.1 5.9-3.5 0-6.1-2.4-6.1-5.9m9.1 0c0-1.9-1.2-3.3-3.1-3.3-1.9 0-3.1 1.4-3.1 3.3 0 1.8 1.2 3.3 3.1 3.3 1.9 0 3.1-1.4 3.1-3.3m12.4 5.7v-4.6h-4.7v4.6h-3V8.1h3v4.3h4.7V8.1h2.9v11.4zm4.6-5.7c0-3.4 2.6-5.9 6.1-5.9 3.5 0 6.1 2.4 6.1 5.9 0 3.5-2.6 5.9-6.1 5.9-3.5 0-6.1-2.4-6.1-5.9m9.2 0c0-1.9-1.2-3.3-3.1-3.3-1.9 0-3.1 1.4-3.1 3.3 0 1.8 1.2 3.3 3.1 3.3 1.9 0 3.1-1.4 3.1-3.3m7.3 5.7l-4.3-11.4h3.3l2.8 8.2 2.8-8.2h3.3l-4.2 11.4zm-79.3 17V25.1H57c3.6 0 6.1 2.1 6.1 5.7 0 3.5-2.6 5.7-6.1 5.7h-4.8zm7.9-5.7c0-1.8-1.1-3.1-3.1-3.1h-1.9v6.2H57c2 0 3.1-1.4 3.1-3.1m4.7 5.7V25.1h8.3v2.6h-5.3v1.8H73V32h-5.2v1.9h5.3v2.6zm9.6-1.6l1.5-2.2c.8.8 2.1 1.5 3.6 1.5 1 0 1.6-.4 1.6-.9 0-1.5-6.4-.3-6.4-4.7 0-1.9 1.6-3.6 4.5-3.6 1.8 0 3.4.5 4.6 1.6l-1.6 2.1c-1-.8-2.2-1.2-3.3-1.2-.8 0-1.2.3-1.2.8 0 1.4 6.4.4 6.4 4.6 0 2.3-1.7 3.8-4.7 3.8-2.2 0-3.8-.7-5-1.8m11.5-9.8h2.9v11.3h-2.9zm4.7 5.7c0-3.6 2.8-5.9 6.1-5.9 2.5 0 4.1 1.3 4.8 2.8L99.1 29c-.4-.7-1.3-1.4-2.4-1.4-1.9 0-3.2 1.4-3.2 3.3s1.3 3.3 3.2 3.3c.8 0 1.7-.3 2.1-.7v-.9h-2.6V30h5.5v4.5c-1.2 1.3-2.9 2.2-5 2.2-3.4 0-6.1-2.3-6.1-5.9m20.9 5.7l-4.8-6.6v6.6h-2.9V25.1h3l4.6 6.3v-6.3h2.9v11.4zM17.7 0H0v44.7h17.8c15 0 24.6-8.8 24.6-22.4C42.4 8.7 32.7 0 17.7 0m-.4 35.7h-8V9.5h8c9.3 0 15.7 3.7 15.7 12.7.1 7.5-5.8 13.5-15.7 13.5"/><path d="M19.1 17H17v10.6h2c4 0 6.4-2.4 6.4-5.4 0-3.7-2.6-5.2-6.3-5.2"/></symbol><symbol viewBox="0 0 96.124 96.123" id="fb"><path d="M72.089.02L59.624 0C45.62 0 36.57 9.285 36.57 23.656v10.907H24.037a1.96 1.96 0 0 0-1.96 1.961v15.803a1.96 1.96 0 0 0 1.96 1.96H36.57v39.876a1.96 1.96 0 0 0 1.96 1.96h16.352a1.96 1.96 0 0 0 1.96-1.96V54.287h14.654a1.96 1.96 0 0 0 1.96-1.96l.006-15.803a1.963 1.963 0 0 0-1.961-1.961H56.842v-9.246c0-4.444 1.059-6.7 6.848-6.7l8.397-.003a1.96 1.96 0 0 0 1.959-1.96V1.98A1.96 1.96 0 0 0 72.089.02z"/></symbol><symbol viewBox="0 0 70 61" id="icon-adv1"><path d="M69.75 19.212c.033-.039.06-.08.087-.122l.014-.024a1.09 1.09 0 0 0 .06-.118l.004-.008c.018-.042.032-.086.045-.13l.008-.031c.009-.037.016-.074.021-.112l.004-.026c.005-.044.007-.088.007-.133l-.001-.03a1.092 1.092 0 0 0-.01-.114l-.004-.028a1.086 1.086 0 0 0-.032-.135l-.006-.017a1.109 1.109 0 0 0-.046-.118l-.006-.016-.006-.01a1.096 1.096 0 0 0-.07-.123c-.002-.005-.005-.008-.008-.012a1.066 1.066 0 0 0-.055-.075L55.537.403a1.096 1.096 0 0 0-.85-.403h-39.38c-.037 0-.074.002-.111.006h-.007c-.04.005-.079.012-.118.02-.007.002-.013.005-.02.006a1.127 1.127 0 0 0-.085.024l-.006.002-.04.016-.07.028-.035.018a1.084 1.084 0 0 0-.068.037l-.032.02a1.119 1.119 0 0 0-.235.207l-.017.019L.244 17.83c-.02.024-.037.05-.055.075l-.008.01a.956.956 0 0 0-.07.124l-.006.01-.006.016a1.074 1.074 0 0 0-.046.118l-.006.017c-.014.045-.024.09-.032.136l-.004.027a1.095 1.095 0 0 0-.01.114l-.001.03c0 .045.002.09.007.134 0 .008.003.017.004.026.005.037.012.074.021.111l.008.032c.013.044.027.087.045.13l.003.007a1.07 1.07 0 0 0 .161.264l33.903 41.387.017.018c.017.02.035.04.054.059l.012.013.013.012.002.001c.02.018.04.036.06.052l.029.023c.009.007.017.014.027.02 0 .002.002.002.003.003l.035.023.031.02.06.032.024.013.02.01c.023.01.046.02.07.028l.04.015.005.003.006.001c.01.004.02.006.031.009.037.01.075.02.113.026l.024.006.022.002c.046.007.092.01.138.011L35 61l.013-.001c.046 0 .092-.004.137-.01l.022-.003.025-.006a1.4 1.4 0 0 0 .112-.026l.032-.009.005-.001c.003 0 .004-.002.007-.003l.039-.015a1.076 1.076 0 0 0 .09-.038c.008-.004.015-.009.023-.012l.06-.033.031-.02.036-.023.003-.002.027-.02a1.124 1.124 0 0 0 .089-.076l.002-.002.013-.011.012-.013.054-.06.017-.017L69.75 19.212zM14.906 3.318l4.723 14.11H3.393l11.512-14.11zm35.407 11.58a1.098 1.098 0 0 0 1.363-.73l3.315-10.98 11.617 14.24H49.74L37.3 2.18h15.709l-3.43 11.361a1.089 1.089 0 0 0 .733 1.358zM16.83 2.18h15.907L21.544 16.26 16.831 2.18zm18.18.652l11.91 14.596H26.108c-.604 0-1.094.488-1.094 1.09 0 .602.49 1.09 1.095 1.09h21.227L35 56.463l-12.629-37.73 12.64-15.901zm2.915 51.782l11.717-35.006H66.6L37.926 54.613zM20.357 19.608l11.717 35.005L3.399 19.608h16.958z"/></symbol><symbol viewBox="0 0 50 61" id="icon-adv2"><path d="M49.422 9.626L39.169 5.425 37.234.563c-.006-.016-.014-.03-.02-.045l-.015-.03a.893.893 0 0 0-.063-.107L37.12.362a.871.871 0 0 0-.18-.182l-.005-.005a.911.911 0 0 0-.105-.066L36.8.094a.93.93 0 0 0-.092-.04l-.028-.01-.01-.004a.883.883 0 0 0-.11-.026L36.533.01a.867.867 0 0 0-.107-.008L36.407 0H13.569l-.02.002a.882.882 0 0 0-.104.008l-.03.004a.874.874 0 0 0-.108.026c-.004 0-.008.003-.012.004l-.028.01a.866.866 0 0 0-.09.04l-.032.015a.872.872 0 0 0-.105.066l-.005.005a.875.875 0 0 0-.18.182l-.014.019a.919.919 0 0 0-.064.107l-.014.03-.02.044-1.936 4.862L.554 9.626a.895.895 0 0 0-.554.829v9.492c0 .495.399.895.89.895.492 0 .891-.4.891-.895v-8.89l9.537-3.909 5.77 9.284a.89.89 0 0 0 .755.42h.025a.877.877 0 0 0 .073-.005l.034-.005a.884.884 0 0 0 .06-.01l.036-.01a.938.938 0 0 0 .143-.052l.035-.016.05-.029c.011-.006.022-.012.032-.02a.856.856 0 0 0 .052-.037l.025-.019a.894.894 0 0 0 .071-.065l.74-.76 1.912 2.248-2.43 12.57a.895.895 0 0 0 .792 1.063l.025.001c.02.001.038.003.058.003h.005l.022-.002c.02 0 .041-.001.061-.003l.03-.004a.915.915 0 0 0 .052-.008l.032-.008a.95.95 0 0 0 .125-.039l.03-.013a.981.981 0 0 0 .044-.021l.03-.015a.924.924 0 0 0 .045-.028l.023-.014a.85.85 0 0 0 .064-.048l.02-.018a.986.986 0 0 0 .04-.036l.023-.025.032-.035.022-.028a.959.959 0 0 0 .11-.184l.014-.031a.872.872 0 0 0 .018-.053l.01-.027a.953.953 0 0 0 .02-.084l2.373-12.271h4.333l5.447 28.17-7.614 7.423-7.614-7.423 2.014-10.163a.894.894 0 0 0-.704-1.05.89.89 0 0 0-1.044.709l-2.106 10.639a.898.898 0 0 0 .254.813l8.58 8.365a.886.886 0 0 0 1.24 0l8.58-8.365a.898.898 0 0 0 .255-.813l-5.598-28.947 1.912-2.248.74.76a.86.86 0 0 0 .071.066l.024.018a.982.982 0 0 0 .053.038l.031.02a.853.853 0 0 0 .227.096l.04.01a.904.904 0 0 0 .054.01l.04.006.064.004.03.001h.002a.89.89 0 0 0 .755-.42l5.77-9.284 9.537 3.908v33.836c0 .494.4.895.89.895.492 0 .891-.4.891-.895V10.455a.894.894 0 0 0-.553-.829zM33.489 1.79l-8.501 5.751-8.501-5.75h17.002zM18 14.518l-5.421-8.722 1.408-3.54L23.46 8.91l-5.462 5.608zm9.479 2.405h-4.98L20.47 14.54l4.518-4.64 4.518 4.64-2.028 2.384zm4.5-2.405l-5.606-5.756 9.618-6.506 1.408 3.54-5.42 8.722z"/><path d="M49.085 49.92a.893.893 0 0 0-.89.896v8.394H1.78V25.87c0-.494-.399-1.63-.89-1.63-.492.735-.89 1.136-.89 1.63v34.235c0 .494.398.895.89.895h48.194c.492 0 .89-.4.89-.895v-9.29a.893.893 0 0 0-.89-.894z"/></symbol><symbol viewBox="0 0 51 61" id="icon-adv3"><path d="M50.345 14.056L34.91.282C34.726.098 34.543 0 34.263 0H.915C.366 0 0 .368 0 .92v59.16c0 .552.366.92.915.92h48.88c.55 0 .916-.368.916-.92V14.693c0-.184-.183-.454-.366-.638zM35.19 2.96l12.13 10.814H35.19V2.959zm13.678 56.2H1.83V1.854h31.518v12.853c0 .552.366.92.915.92h14.605V59.16z"/><path d="M28.015 32.912H6.712c-.549 0-.915.369-.915.921s.366.92.915.92h21.317c.549 0 .915-.368.915-.92s-.366-.92-.928-.92zm0 6.654H6.712c-.549 0-.915.368-.915.92 0 .553.366.921.915.921h21.317c.549 0 .915-.368.915-.92 0-.553-.366-.921-.928-.921zm0 6.654H6.712c-.549 0-.915.368-.915.92 0 .553.366.921.915.921h21.317c.549 0 .915-.368.915-.92 0-.553-.366-.921-.928-.921zm0 6.653H6.712c-.549 0-.915.369-.915.92 0 .553.366.922.915.922h21.317c.549 0 .915-.369.915-.921s-.366-.92-.928-.92zm-7.711-35.478h-2.111c3.124-.466 5.417-3.044 5.417-6.285 0-3.511-2.843-6.384-6.344-6.384-3.502 0-6.345 2.86-6.345 6.384 0 3.24 2.391 5.917 5.417 6.285h-2.11c-4.137 0-7.53 3.425-7.53 7.575v1.473c.281.552.647.92 1.197.92h19.022c.55 0 .915-.368.915-.92V24.97c0-4.162-3.404-7.575-7.528-7.575zm-7.59-6.297c0-2.492 2.026-4.53 4.503-4.53 2.477 0 4.746 2.038 4.746 4.53 0 2.492-2.27 4.53-4.746 4.53-2.477 0-4.503-2.038-4.503-4.53zM26.1 25.51H8.578v-.553c0-3.142 2.575-5.733 5.698-5.733h6.125c3.124 0 5.699 2.59 5.699 5.733v.553zm20.597 7.095a.882.882 0 0 0-.818-.589h-4.515l-1.39-4.321a.87.87 0 0 0-.818-.59.843.843 0 0 0-.818.59l-1.39 4.321h-4.515a.843.843 0 0 0-.818.59.836.836 0 0 0 .305.957l3.648 2.664-1.39 4.321a.835.835 0 0 0 .305.957.838.838 0 0 0 1 0l3.66-2.663 3.649 2.663c.146.111.33.16.5.16.171 0 .354-.049.537-.16a.872.872 0 0 0 .305-.957l-1.39-4.321 3.648-2.664a.872.872 0 0 0 .304-.958zm-5.504 2.603a.872.872 0 0 0-.304.957l.768 2.394-2.025-1.485a.838.838 0 0 0-1 0l-2.026 1.485.768-2.394a.835.835 0 0 0-.305-.957l-2.025-1.486h2.501a.843.843 0 0 0 .818-.589l.768-2.394.77 2.394a.88.88 0 0 0 .817.59h2.501l-2.026 1.485zm5.504 12.927a.882.882 0 0 0-.818-.59h-4.515l-1.39-4.32a.87.87 0 0 0-.818-.59.843.843 0 0 0-.818.59l-1.39 4.32h-4.515a.843.843 0 0 0-.818.59.836.836 0 0 0 .305.957l3.648 2.664-1.39 4.321a.835.835 0 0 0 .305.958.838.838 0 0 0 1 0l3.66-2.664 3.649 2.664c.146.11.33.16.5.16.171 0 .354-.05.537-.16a.872.872 0 0 0 .305-.958l-1.39-4.32 3.648-2.665a.872.872 0 0 0 .304-.957zm-5.504 2.602a.872.872 0 0 0-.304.958l.768 2.394-2.025-1.486a.838.838 0 0 0-1 0l-2.026 1.486.768-2.394a.835.835 0 0 0-.305-.958l-2.025-1.485h2.501a.843.843 0 0 0 .818-.59l.768-2.393.77 2.394a.88.88 0 0 0 .817.589h2.501l-2.026 1.485z"/></symbol><symbol viewBox="0 0 97 68" id="icon-play"><path d="M95.201 10.862c-1.186-5.152-5.4-8.953-10.473-9.52C72.715 0 60.556-.006 48.453 0 36.348-.006 24.187 0 12.174 1.34c-5.07.568-9.281 4.369-10.467 9.52C.019 18.2 0 26.209 0 33.762c0 7.555 0 15.563 1.688 22.899 1.184 5.15 5.396 8.952 10.469 9.52 12.012 1.342 24.172 1.349 36.277 1.342 12.107.007 24.264 0 36.275-1.342 5.07-.567 9.285-4.368 10.471-9.52 1.689-7.337 1.695-15.345 1.695-22.898 0-7.554.014-15.563-1.674-22.9zM35.936 48.798V16.76a497491.15 497491.15 0 0 0 30.798 16.068c-10.3 5.342-20.504 10.63-30.798 15.969z"/><path d="M35.936 16.76v32.038l30.798-15.97a497491.15 497491.15 0 0 1-30.798-16.067z"/><path d="M35.936 16.76v32.038l30.798-15.97a497491.15 497491.15 0 0 1-30.798-16.067z"/><path d="M38 19v28c9.025-4.665 17.97-9.288 27-13.957-9.058-4.71-18-9.361-27-14.043z" fill="#F2F2F2"/></symbol><symbol viewBox="0 0 16 17" id="icon-search"><path d="M15.757 15.484l-3.944-4.208a6.949 6.949 0 0 0 1.57-4.412C13.382 3.079 10.38 0 6.69 0 3.001 0 0 3.08 0 6.864s3.002 6.863 6.691 6.863a6.505 6.505 0 0 0 3.834-1.242l3.974 4.24a.856.856 0 0 0 1.234.025.913.913 0 0 0 .024-1.266zM6.69 1.791c2.727 0 4.946 2.275 4.946 5.073 0 2.797-2.219 5.073-4.946 5.073S1.746 9.66 1.746 6.864c0-2.798 2.218-5.073 4.945-5.073z"/></symbol><symbol viewBox="0 0 97.395 97.395" id="inst"><path d="M12.501 0h72.393c6.875 0 12.5 5.09 12.5 12.5v72.395c0 7.41-5.625 12.5-12.5 12.5H12.501C5.624 97.395 0 92.305 0 84.895V12.5C0 5.09 5.624 0 12.501 0zm58.447 10.821a4.395 4.395 0 0 0-4.383 4.385v10.495a4.396 4.396 0 0 0 4.383 4.385h11.008a4.398 4.398 0 0 0 4.385-4.385V15.206a4.397 4.397 0 0 0-4.385-4.385H70.948zm15.439 30.367h-8.572a28.486 28.486 0 0 1 1.25 8.355c0 16.2-13.556 29.332-30.275 29.332-16.718 0-30.272-13.132-30.272-29.332 0-2.904.438-5.708 1.25-8.355h-8.945v41.141a3.884 3.884 0 0 0 3.872 3.872h67.822a3.883 3.883 0 0 0 3.872-3.872V41.188h-.002zM48.789 29.533c-10.802 0-19.56 8.485-19.56 18.953s8.758 18.953 19.56 18.953c10.803 0 19.562-8.485 19.562-18.953s-8.758-18.953-19.562-18.953z"/></symbol><symbol viewBox="0 0 107 42" id="logotip"><path fill-rule="evenodd" clip-rule="evenodd" d="M.498 4.21C1.732 2.265 4.65 1.235 8.35.58c3.345-.375 6.286-.656 9.773-.562v12.457L.498 4.209zm15.394 23.18l-.166 6.157c-4.886-4.378-8.563-9.506-10.39-16.296l10.32 4.472V16.83L0 9.478C1.162 28.63 9.132 34.695 18.122 41.977V27.39h-2.23zm38.403-17.046h-7.33v11.215h2.372v-9.248h4.934v-1.967h.024zm7.85 11.192h2.397L58.944 9.969h-.095L53.25 21.536h2.396l.901-1.944h4.673l.925 1.944zm-3.249-7.165l1.613 3.512h-3.226l1.613-3.512zm9.251 3.184h1.755c2.538 0 4.365-1.077 4.365-3.676s-1.827-3.559-4.365-3.559h-4.127v11.216h2.372v-3.98zm0-1.92v-3.348h1.138c1.66 0 2.61.234 2.61 1.616 0 1.381-.76 1.732-2.61 1.732h-1.138zm14.516 5.9h2.396L79.461 9.994h-.095L73.77 21.559h2.371l.902-1.943h4.673l.948 1.92zm-3.273-7.164l1.613 3.512h-3.226l1.613-3.512zm9.25 2.435h5.124v4.753h2.349V10.344h-2.349v4.566h-5.123v-4.566h-2.372v11.215h2.372v-4.753zM107 10.344h-9.298v1.99h3.463v9.225h2.372v-9.248H107v-1.967z"/><path d="M8.35.58C9.534.463 10.673.323 11.788.23 10.65.346 9.535.463 8.349.58zm9.89 11.965l17.98-7.633c-.949-2.389-4.08-3.606-8.183-4.308-3.368-.375-6.334-.656-9.844-.539h-.071v12.456l.119.024zm2.467 4.355v4.73l10.105-4.379c-1.827 6.79-5.48 11.894-10.39 16.296l-.165-6.157h-2.135v14.587c.024 0 .024.023.047.023h.072c8.87-7.188 16.746-13.159 18.098-31.75L20.707 16.9zm29.674 12.058h.972c.166 1.429 1.186 2.389 2.68 2.389 1.614 0 2.681-1.148 2.681-2.81 0-1.663-1.091-2.81-2.68-2.81-1.447 0-2.491.937-2.657 2.318h-.973v-2.2h-1.138v5.384h1.139v-2.27h-.024zm2.087-.421c0-1.218.64-1.85 1.566-1.85.948 0 1.541.703 1.541 1.85 0 1.124-.593 1.85-1.541 1.85-.925 0-1.566-.633-1.566-1.85zm5.076-1.124v5.315h1.068V30.69c.308.562.806.655 1.21.655 1.043 0 1.73-.725 1.73-2.013 0-1.288-.687-2.014-1.73-2.014-.475 0-.973.21-1.282.726v-.632h-.996zm1.044 1.896c0-.749.356-1.17.949-1.17.664 0 .948.538.948 1.17 0 .633-.26 1.171-.948 1.171-.593 0-.95-.421-.95-1.17zm4.862.188v-2.084h-1.067v3.98h.047l2.562-2.248v2.084h1.068v-3.98h-.048l-2.562 2.248zm3.297.89v1.966h1.02V31.23h2.562v1.124h1.02v-1.966h-.522v-2.974h-3.083c0-.187.023 1.428-.119 2.06-.118.562-.427.914-.735.914h-.143zm3.013-2.108v2.108h-1.566c.332-.282.475-.96.498-1.476.024-.28 0-.327.024-.632h1.044zm3.415 1.218v-2.084h-1.067v3.98h.047l2.562-2.248v2.084h1.068v-3.98h-.048l-2.561 2.248zm5.883-.515c-.214.163-.45.28-.735.28-.522 0-.64-.257-.64-.983v-.866h-1.068v1.217c0 1.335.996 1.452 1.447 1.452.427 0 .782-.164.996-.351v1.475h1.067v-3.793h-1.067v1.569zm1.898.35c0 1.195.688 2.038 2.063 2.038.664 0 1.305-.21 1.708-.726l-.593-.585c-.308.374-.735.468-1.091.468-.427 0-.996-.258-1.02-.82h2.775v-.398c0-1.287-.688-1.966-1.897-1.966-1.02-.047-1.945.702-1.945 1.99zm1.968-1.193c.546 0 .783.28.83.796h-1.707c.07-.539.45-.796.877-.796zm3.582 1.194c0-.632.38-1.194 1.02-1.194.474 0 .806.187.996.468l.688-.562c-.356-.468-.925-.75-1.684-.75-1.28 0-2.064.844-2.064 2.061 0 1.218.783 1.99 2.064 1.99.759 0 1.352-.28 1.684-.749l-.711-.562c-.19.281-.522.469-.973.469-.64 0-1.02-.562-1.02-1.171zm4.602-1.92H90.04v3.793h1.068v-1.85l1.447 1.85h1.352l-1.708-1.967v-.047l1.613-1.78h-1.257l-1.447 1.757v-1.756zm4.435 2.084v-2.084h-1.067v3.98h.047l2.562-2.248v2.084h1.067v-3.98h-.047l-2.562 2.248zm4.673 0v-2.084h-1.067v3.98h.047l2.562-2.248v2.084h1.067v-3.98h-.047l-2.562 2.248zm1.257-3.77c0 .304-.118.562-.427.562-.308 0-.427-.258-.427-.562h-.877c0 .703.261 1.264 1.281 1.264 1.019 0 1.304-.561 1.304-1.264h-.854zm-35.271 11.59v-2.95h-1.067v3.793h3.202v1.124h1.02v-1.967h-.617v-2.95h-1.067v2.95h-1.471zm3.605-1.053c0 1.194.688 2.036 2.064 2.036.664 0 1.305-.21 1.708-.725l-.593-.586c-.309.375-.736.469-1.091.469-.427 0-.997-.258-1.02-.82h2.775v-.398c0-1.288-.688-1.967-1.898-1.967-1.043-.047-1.945.703-1.945 1.99zm1.969-1.195c.546 0 .783.281.83.796h-1.708c.048-.538.427-.796.878-.796zm3.748 1.57h1.518v1.521h1.067v-3.793h-1.067v1.428h-1.518v-1.428h-1.068v3.793h1.068v-1.522zm4.53-1.43v2.951h1.068v-2.95h1.21v-.843h-3.487v.843h1.21zm3.036-.842v5.315h1.068v-2.06c.308.562.806.655 1.21.655 1.043 0 1.731-.726 1.731-2.014 0-1.287-.688-2.013-1.731-2.013-.475 0-.973.21-1.281.726v-.61h-.997zm1.02 1.873c0-.75.356-1.17.95-1.17.663 0 .948.538.948 1.17 0 .632-.261 1.17-.949 1.17-.593.024-.949-.42-.949-1.17z"/></symbol><symbol viewBox="0 0 166 66" fill="none" id="logotip-l"><path fill-rule="evenodd" clip-rule="evenodd" d="M.773 6.615C2.686 3.56 7.213 1.942 12.953.912c5.189-.59 9.752-1.03 15.161-.883v19.574L.773 6.615zM24.655 43.04l-.257 9.676C16.818 45.837 11.113 37.78 8.28 27.11l16.007 7.027v-7.69L0 14.893c1.803 30.098 14.168 39.627 28.114 51.07V43.041h-3.459zm59.578-26.786H72.862v17.624h3.68V19.345h7.654v-3.09h.037zm12.18 17.587h3.717l-8.685-18.176h-.147l-8.684 18.176h3.716l1.399-3.054h7.25l1.434 3.054zm-5.041-11.259l2.502 5.52H88.87l2.503-5.52zm14.351 5.004h2.723c3.938 0 6.771-1.692 6.771-5.776 0-4.085-2.833-5.593-6.771-5.593h-6.403v17.624h3.68v-6.255zm0-3.017v-5.262h1.767c2.576 0 4.048.369 4.048 2.54 0 2.17-1.178 2.722-4.048 2.722h-1.767zm22.521 9.272h3.717l-8.685-18.14h-.147l-8.684 18.177h3.68l1.398-3.054h7.249l1.472 3.017zm-5.078-11.259l2.502 5.52h-5.004l2.502-5.52zm14.352 3.827h7.948v7.469h3.643V16.255h-3.643v7.174h-7.948v-7.174h-3.68v17.624h3.68v-7.47zM166 16.255h-14.425v3.127h5.372V33.88h3.68V19.345H166v-3.09z" fill="#002B5B"/><path d="M12.953.912C14.793.728 16.56.507 18.29.36c-1.766.184-3.496.368-5.336.552zm15.345 18.801L56.192 7.718c-1.472-3.753-6.33-5.666-12.696-6.77C38.271.36 33.671-.082 28.225.102h-.11v19.574l.183.037zm3.827 6.844v7.432l15.677-6.88c-2.834 10.67-8.5 18.691-16.118 25.608l-.258-9.676h-3.312v22.922c.037 0 .037.037.074.037h.11c13.763-11.296 25.98-20.678 28.078-49.893l-24.25 10.45zM.773 6.615c1.545-2.429 4.71-3.937 8.831-4.968-4.121 1.03-7.286 2.54-8.831 4.968zm77.388 38.89h1.509c.257 2.245 1.84 3.754 4.158 3.754 2.502 0 4.158-1.803 4.158-4.416 0-2.612-1.693-4.415-4.158-4.415-2.245 0-3.864 1.472-4.122 3.643h-1.508v-3.459H76.43v8.463h1.767v-3.57h-.037zm3.238-.662c0-1.913.994-2.906 2.429-2.906 1.472 0 2.392 1.104 2.392 2.906 0 1.767-.92 2.907-2.392 2.907-1.435 0-2.429-.993-2.429-2.907zm9.384-1.766h-1.509v8.353h1.656v-3.201c.479.883 1.251 1.03 1.877 1.03 1.619 0 2.686-1.14 2.686-3.165 0-2.023-1.067-3.164-2.686-3.164-.736 0-1.509.331-1.987 1.14v-.993h-.037zm.11 2.98c0-1.177.552-1.839 1.472-1.839 1.03 0 1.472.846 1.472 1.84 0 .993-.405 1.84-1.472 1.84-.92 0-1.472-.663-1.472-1.84zm7.544.295v-3.275h-1.656v6.255h.074l3.974-3.532v3.275h1.656V42.82h-.073l-3.975 3.532zm5.115 1.398v3.09h1.583v-1.765h3.974v1.766h1.582v-3.09h-.81v-4.674h-4.783c0-.294.037 2.245-.184 3.238-.184.883-.662 1.435-1.141 1.435h-.221zm4.674-3.311v3.311h-2.43c.516-.441.737-1.508.774-2.318.037-.441 0-.515.037-.993h1.619zm5.299 1.913v-3.275h-1.656v6.255h.074l3.974-3.532v3.275h1.656V42.82h-.074l-3.974 3.532zm9.126-.81c-.331.258-.7.442-1.141.442-.81 0-.993-.405-.993-1.545v-1.362h-1.656v1.914c0 2.097 1.545 2.28 2.245 2.28.662 0 1.214-.257 1.545-.551v2.318h1.656v-5.96h-1.656v2.465zm2.944.552c0 1.877 1.067 3.202 3.2 3.202 1.032 0 2.025-.332 2.65-1.141l-.92-.92c-.477.589-1.14.736-1.692.736-.662 0-1.545-.405-1.582-1.288h4.305v-.625c0-2.024-1.067-3.091-2.943-3.091-1.583-.074-3.018 1.104-3.018 3.127zm3.054-1.876c.847 0 1.215.442 1.288 1.251h-2.65c.11-.846.7-1.251 1.362-1.251zm5.557 1.876c0-.993.589-1.876 1.582-1.876.736 0 1.25.294 1.546.736l1.067-.883c-.552-.736-1.435-1.178-2.613-1.178-1.987 0-3.201 1.325-3.201 3.238 0 1.914 1.214 3.128 3.2 3.128 1.179 0 2.099-.442 2.614-1.178l-1.104-.883c-.294.442-.81.736-1.51.736-.992 0-1.581-.883-1.581-1.84zm7.139-3.017h-1.656v5.961h1.656v-2.907l2.245 2.907h2.097l-2.65-3.09v-.074l2.503-2.797h-1.95l-2.245 2.76v-2.76zm6.88 3.275v-3.275h-1.655v6.255h.074l3.974-3.532v3.275h1.656V42.82h-.073l-3.975 3.532zm7.25 0v-3.275h-1.655v6.255h.073l3.975-3.532v3.275h1.656V42.82h-.074l-3.974 3.532zm1.95-5.924c0 .479-.183.883-.661.883-.48 0-.663-.404-.663-.883h-1.361c0 1.104.405 1.987 1.987 1.987s2.024-.883 2.024-1.987h-1.325zm-54.72 18.213v-4.636h-1.655v5.96h4.968v1.767h1.582v-3.09h-.956v-4.637h-1.656v4.636h-2.282zm5.594-1.656c0 1.877 1.068 3.202 3.202 3.202 1.03 0 2.024-.332 2.65-1.141l-.92-.92c-.48.589-1.141.736-1.693.736-.663 0-1.546-.405-1.583-1.288h4.306v-.625c0-2.024-1.067-3.091-2.944-3.091-1.62-.074-3.018 1.104-3.018 3.127zm3.055-1.876c.846 0 1.214.442 1.288 1.251h-2.65c.074-.846.663-1.251 1.362-1.251zm5.814 2.465h2.355v2.392h1.656v-5.96h-1.656v2.244h-2.355v-2.245h-1.656v5.96h1.656v-2.39zm7.029-2.244v4.636h1.656V55.33h1.876v-1.325h-5.41v1.325h1.878zm6.219-1.325h-1.51v8.352h1.657V59.12c.478.883 1.25 1.03 1.877 1.03 1.619 0 2.686-1.14 2.686-3.165 0-2.023-1.067-3.164-2.686-3.164-.736 0-1.51.331-1.988 1.14v-.956h-.036zm.073 2.944c0-1.178.552-1.84 1.472-1.84 1.03 0 1.472.846 1.472 1.84 0 .993-.405 1.84-1.472 1.84-.92.036-1.472-.663-1.472-1.84z" fill="#C19B48"/></symbol><symbol viewBox="0 0 411 482" id="logotip-noname"><path d="M204.949 143.047V.223c-39.3-1.103-72.54 2.206-110.555 6.434-41.688 7.352-74.744 19.3-88.701 41.725l199.256 94.665zm-24.976 171.131l-2.02 70.768c-55.277-50.365-96.781-109.186-117.35-187.123l116.799 51.284v-56.063L0 108.673c13.223 220.026 103.393 289.508 204.949 372.959V314.178h-24.976z"/><path d="M204.949 143.047V.223h.735c39.667-1.103 73.091 2.022 111.289 6.25 46.279 8.088 81.906 22.058 92.558 49.446l-203.113 87.863-1.469-.735zm29.383 50.916v54.225l114.228-50.365c-20.568 77.938-62.072 136.574-117.533 186.939l-2.02-70.768h-24.242v167.638c.184.184.368.184.368.368h.734C306.689 399.467 395.941 330.905 411 117.68l-176.668 76.283z"/></symbol><symbol viewBox="0 0 77 68" fill="none" id="logotip-p"><path d="M17.948 48.913h-4.683v8.793H11V47.02h6.948v1.893zm6.594 6.946H20.09l-.863 1.847h-2.265l5.33-11.022h.093L27.7 57.706h-2.28l-.878-1.847zm-3.744-1.649h3.05l-1.525-3.343-1.525 3.343zm10.322 3.496h-2.265V47.02h3.913c2.404 0 4.144.916 4.144 3.389s-1.74 3.496-4.144 3.496h-1.663v3.8h.015zm1.078-5.633c1.741 0 2.48-.351 2.48-1.664s-.893-1.527-2.48-1.527H31.12v3.19h1.078zm11.816 3.786h-4.452l-.863 1.862h-2.28L41.75 46.7h.093l5.315 11.021h-2.265l-.878-1.862zm-3.759-1.649h3.05l-1.525-3.343-1.525 3.343zm10.322 3.496h-2.265V47.02h2.265v4.35h4.868v-4.35h2.234v10.686h-2.234v-4.519h-4.868v4.519zM68 48.913h-3.28v8.793h-2.266v-8.793h-3.28V47.02H68v1.893zM38.9 11.88V.02c-3.297-.092-6.085.183-9.274.518-3.498.611-6.27 1.603-7.441 3.466L38.9 11.88zm-2.096 14.212l-.169 5.877c-4.652-4.183-8.119-9.067-9.86-15.525l9.798 4.26v-4.672L21.707 9.026c1.11 18.257 8.673 24.042 17.193 30.972V26.092h-2.096z" fill="#000D41"/><path d="M38.9 11.88V.018h.061c3.328-.092 6.132.167 9.336.519 3.882.671 6.87 1.831 7.764 4.106L39.008 11.94l-.108-.06zM22.185 4.002c.693-1.084 1.925-1.878 3.543-2.473-1.618.595-2.865 1.389-3.543 2.473zm19.18 12.105v4.503l9.582-4.183c-1.726 6.473-5.207 11.342-9.86 15.525l-.17-5.877h-2.033v13.922c.016.015.031.015.031.03h.062c8.442-6.854 15.929-12.548 17.208-30.255l-14.82 6.335zM1.563 64.084h.924c.154 1.358 1.125 2.29 2.542 2.29 1.525 0 2.557-1.1 2.557-2.687C7.586 62.099 6.554 61 5.03 61c-1.386 0-2.357.885-2.526 2.213h-.925v-2.09H.5v5.128h1.078v-2.168h-.015zm1.972-.397c0-1.16.616-1.756 1.494-1.756.894 0 1.448.672 1.448 1.756 0 1.083-.57 1.755-1.448 1.755s-1.494-.595-1.494-1.755zm5.761-1.069h-.924v5.083h1.002v-1.969c.292.534.77.626 1.14.626.986 0 1.648-.702 1.648-1.923 0-1.222-.647-1.924-1.649-1.924-.446 0-.924.199-1.232.702v-.595h.015zm.047 1.801c0-.702.339-1.114.909-1.114.631 0 .893.519.893 1.114 0 .596-.262 1.115-.893 1.115-.555.015-.91-.397-.91-1.115zm4.637.184v-1.985h-1.002v3.786h.047l2.434-2.137v1.984h1.001v-3.786h-.046l-2.434 2.138zm3.112.84v1.877h.986v-1.084h2.434v1.068h.986v-1.877h-.509v-2.809h-2.927c-.015-.183.031 1.359-.108 1.954-.123.534-.416.87-.693.87h-.17zm2.88-2.016v2h-1.494c.324-.275.447-.916.478-1.405.015-.259.015-.305.015-.595h1.001zm3.236 1.176v-1.985h-1.002v3.786h.046l2.434-2.137v1.984h1.002v-3.786h-.046l-2.434 2.138zm5.607-.489c-.2.153-.431.26-.709.26-.493 0-.616-.23-.616-.932v-.824h-1v1.16c0 1.283.94 1.39 1.371 1.39.4 0 .74-.153.955-.337v1.405h1.002v-3.633h-1.002v1.511zm1.787.32c0 1.145.647 1.94 1.972 1.94.632 0 1.233-.2 1.618-.703l-.586-.565c-.308.351-.693.443-1.047.443-.416 0-.94-.244-.955-.794h2.634v-.381c0-1.222-.647-1.878-1.803-1.878-.955 0-1.833.717-1.833 1.939zm1.88-1.129c.508 0 .755.275.8.763H31.65c.061-.519.416-.763.832-.763zm3.404 1.13c0-.611.354-1.13.955-1.13.447 0 .77.168.94.443l.663-.535c-.34-.442-.879-.717-1.603-.717-1.232 0-1.971.809-1.971 1.954s.739 1.908 1.971 1.908c.724 0 1.279-.275 1.602-.718l-.662-.534c-.17.275-.493.443-.924.443-.632 0-.97-.519-.97-1.114zm4.36-1.817h-1.001v3.633h1v-1.77l1.387 1.77h1.28l-1.634-1.877v-.046l1.54-1.71h-1.186l-1.37 1.664v-1.664h-.016zm4.206 1.985v-1.985H43.45v3.786h.046l2.434-2.137v1.984h1.002v-3.786h-.046l-2.434 2.138zm4.436 0v-1.985h-1.001v3.786h.046l2.434-2.137v1.984h1.002v-3.786h-.047l-2.434 2.138zm1.202-3.588c0 .29-.108.535-.4.535-.293 0-.401-.245-.401-.535h-.832c0 .672.246 1.19 1.217 1.19.97 0 1.248-.533 1.248-1.19h-.832zm6.24 4.55V62.74h-1.002v3.633h3.035v1.069h.986v-1.878h-.601V62.74h-1.002v2.809H56.33v.015zm3.404-1.008c0 1.145.647 1.938 1.972 1.938.631 0 1.232-.198 1.617-.702l-.57-.565c-.308.352-.693.443-1.047.443-.416 0-.94-.244-.956-.794h2.635v-.381c0-1.221-.647-1.878-1.803-1.878-.986 0-1.848.718-1.848 1.939zm1.864-1.13c.508 0 .755.275.8.763h-1.632c.062-.519.431-.763.832-.763zm3.574 1.48h1.433v1.466h1V62.74h-1v1.36h-1.433v-1.36H64.17v3.633h1.002v-1.465zm4.313-1.358v2.809h1.002v-2.809h1.155v-.809H68.33v.81h1.155zm3.79-.809h-.924v5.083h1.001v-1.969c.293.534.77.626 1.14.626.986 0 1.648-.702 1.648-1.923s-.647-1.924-1.648-1.924c-.447 0-.924.199-1.232.703v-.596h.015zm.046 1.801c0-.702.34-1.114.91-1.114.63 0 .893.52.893 1.114 0 .596-.262 1.115-.894 1.115-.57.015-.909-.397-.909-1.115z" fill="#C19B48"/></symbol><symbol viewBox="0 0 12 12" id="modal-close"><path d="M11.414 2.414a1.414 1.414 0 1 0-2-2l-3.5 3.5-3.5-3.5a1.414 1.414 0 1 0-2 2l3.5 3.5-3.5 3.5a1.414 1.414 0 0 0 2 2l3.5-3.5 3.5 3.5a1.414 1.414 0 1 0 2-2l-3.5-3.5 3.5-3.5z"/></symbol><symbol viewBox="0 0 7 4" id="navbar-dropdown"><path d="M3.5 4a.488.488 0 0 1-.347-.144L.143.84a.492.492 0 0 1 0-.695.49.49 0 0 1 .694 0L3.5 2.814 6.163.144a.49.49 0 0 1 .693 0 .492.492 0 0 1 0 .695l-3.01 3.017A.488.488 0 0 1 3.5 4z"/></symbol><symbol viewBox="0 0 24 25" id="navbar-tel"><path d="M23 4.262L12.405 1 2 4.262s0 7.415 1.324 11.408c.92 2.77 4.352 6.858 9.081 9.33 4.844-2.586 8.072-6.732 9.082-9.33C22.688 12.576 23 4.262 23 4.262z" fill="#FFD780"/><path d="M23.998 19.338a3.55 3.55 0 0 0-1.09-2.439c-1.309-1.263-2.405-1.991-3.451-2.294-1.442-.416-2.777-.037-3.968 1.126l-.005.005-1.268 1.258c-.792-.446-2.332-1.426-3.996-3.09l-.124-.124c-1.664-1.664-2.645-3.205-3.09-3.996l1.257-1.268a.682.682 0 0 0 .006-.005C9.432 7.32 9.81 5.985 9.394 4.543 9.092 3.497 8.364 2.4 7.101 1.091A3.55 3.55 0 0 0 4.66.002a3.55 3.55 0 0 0-2.511.91l-.027.025a.99.99 0 0 0-.037.035C.71 2.348-.01 4.274 0 6.543c.02 3.854 2.138 8.262 5.666 11.79a22.851 22.851 0 0 0 2.248 1.958.937.937 0 1 0 1.14-1.488 20.979 20.979 0 0 1-2.062-1.795c-3.187-3.187-5.1-7.103-5.117-10.474-.009-1.747.517-3.206 1.52-4.22l.007-.006a1.686 1.686 0 0 1 2.35.085C8.177 4.91 8.001 6.098 6.93 7.198l-1.738 1.75a.938.938 0 0 0-.19 1.043c.043.099 1.11 2.457 3.769 5.115l.123.123c2.658 2.658 5.016 3.726 5.115 3.77a.937.937 0 0 0 1.042-.191l1.751-1.738c1.1-1.073 2.288-1.248 4.805 1.179.66.635.697 1.667.085 2.348l-.006.008c-1.006.995-2.449 1.52-4.177 1.52h-.043c-1.381-.007-2.981-.386-4.626-1.095a.937.937 0 1 0-.742 1.721c1.9.82 3.704 1.24 5.359 1.249h.052c2.246 0 4.154-.72 5.52-2.086a.918.918 0 0 0 .034-.037l.024-.027a3.55 3.55 0 0 0 .91-2.512z"/></symbol><symbol viewBox="0 0 53 8" id="pagin-next"><path fill-rule="evenodd" clip-rule="evenodd" d="M49.172.464L51.707 3h-1.414l-1.828-1.828a.5.5 0 1 1 .707-.708zM50.5 3.5h1.707l.147.146a.5.5 0 0 1 0 .708l-.147.146H.5a.5.5 0 0 1 0-1h50zM50.293 5l-1.828 1.828a.5.5 0 1 0 .707.708L51.707 5h-1.414z"/></symbol><symbol viewBox="0 0 53 8" id="pagin-prev"><path fill-rule="evenodd" clip-rule="evenodd" d="M3.328.464L.793 3h1.414l1.828-1.828a.5.5 0 1 0-.707-.708zM2 3.5H.293l-.147.146a.5.5 0 0 0 0 .708l.147.146H52a.5.5 0 0 0 0-1H2zM2.207 5l1.828 1.828a.5.5 0 1 1-.707.708L.793 5h1.414z"/></symbol><symbol viewBox="0 0 30 42" id="ruble"><path fill-rule="evenodd" clip-rule="evenodd" d="M7.246 27.231v-1.673h9.343c4.259-.077 7.553-1.202 9.884-3.375C28.825 19.99 30 16.875 30 12.836c0-3.884-1.229-6.99-3.686-9.317C23.856 1.173 20.477 0 16.176 0H1.43v27.231H0v3.693h1.43V42h5.816V30.924h9.026V27.23H7.246zm8.93-6.202h-8.93V4.558h8.962c2.479 0 4.428.76 5.847 2.279 1.42 1.519 2.13 3.538 2.13 6.057 0 2.616-.689 4.625-2.066 6.03-1.377 1.403-3.358 2.105-5.943 2.105z"/></symbol><symbol viewBox="0 0 46 51" fill="none" id="services-adv-cost"><path d="M45.262 9.212L23.76 2.64 2.639 9.212s0 14.942 2.688 22.988C7.192 37.782 14.16 46.02 23.76 51c9.83-5.21 16.383-13.564 18.431-18.8 2.44-6.236 3.072-22.988 3.072-22.988z" fill="#F4E6C5"/><path fill-rule="evenodd" clip-rule="evenodd" d="M22.118.477l22.02 6.73-.015.385-.5-.02.5.02v.013l-.002.036-.006.143a175.554 175.554 0 0 1-.13 2.533 190.304 190.304 0 0 1-.486 6.458c-.462 4.955-1.233 10.773-2.482 13.967-2.096 5.358-8.738 13.8-18.663 19.06l-.232.123-.233-.12c-4.854-2.52-9.04-5.86-12.25-9.277-3.205-3.41-5.462-6.926-6.425-9.81-1.366-4.087-2.04-9.889-2.377-14.633a141.785 141.785 0 0 1-.332-7.848 76.432 76.432 0 0 1-.004-.491v-.129L.5 7.584v-.01l.5-.001H.5v-.368L22.118.477zM1.502 7.94l.003.284a140.777 140.777 0 0 0 .33 7.79c.336 4.738 1.005 10.43 2.327 14.388.902 2.7 3.06 6.094 6.206 9.442a45.336 45.336 0 0 0 11.749 8.951c9.605-5.167 15.984-13.343 17.968-18.417 1.19-3.041 1.954-8.717 2.419-13.696a189.326 189.326 0 0 0 .603-8.744L22.121 1.523 1.502 7.94z" fill="#C19B48"/><path fill-rule="evenodd" clip-rule="evenodd" d="M18.116 15.754h5.519c3.525 0 6.053 1.412 6.053 5.195 0 3.335-1.965 4.965-4.845 5.304a11.005 11.005 0 0 1-1.208.068h-3.204v.752h3.857v1.561h-3.857v3.513h-2.315v-3.513h-1.542v-1.56h1.542v-11.32zm-.82 10.5v-11.32h6.339c1.85 0 3.573.367 4.849 1.35 1.314 1.011 2.024 2.574 2.024 4.665 0 2.09-.708 3.687-2.008 4.741-.929.754-2.1 1.18-3.392 1.356v2.408H21.25v3.513h-3.954v-3.513h-1.543v-3.2h1.543zm3.955-7.234v4.06h1.679c1.328 0 2.244-.096 2.825-.402.262-.137.444-.313.57-.55.131-.248.23-.617.23-1.179 0-.55-.107-.892-.238-1.11-.125-.212-.31-.37-.588-.495-.62-.277-1.546-.324-2.8-.324h-1.678zm-.82-.82h2.499c2.43 0 4.444.138 4.444 2.75 0 2.61-1.818 2.95-4.444 2.95h-2.5v-5.7z" fill="#AB883D"/></symbol><symbol viewBox="0 0 46 51" fill="none" id="services-adv-result"><path d="M45.262 9.212L23.76 2.64 2.639 9.212s0 14.942 2.688 22.988C7.192 37.782 14.16 46.02 23.76 51c9.83-5.21 16.383-13.564 18.431-18.8 2.44-6.236 3.072-22.988 3.072-22.988z" fill="#F4E6C5"/><path fill-rule="evenodd" clip-rule="evenodd" d="M22.118.477l22.02 6.73-.015.385-.5-.02.5.02v.013l-.002.036-.006.143a175.554 175.554 0 0 1-.13 2.533 190.304 190.304 0 0 1-.486 6.458c-.462 4.955-1.233 10.773-2.482 13.967-2.096 5.358-8.738 13.8-18.663 19.06l-.232.123-.233-.12c-4.854-2.52-9.04-5.86-12.25-9.277-3.205-3.41-5.462-6.926-6.425-9.81-1.366-4.087-2.04-9.889-2.377-14.633a141.785 141.785 0 0 1-.332-7.848 76.432 76.432 0 0 1-.004-.491v-.129L.5 7.584v-.01l.5-.001H.5v-.368L22.118.477zM1.502 7.94l.003.284a140.777 140.777 0 0 0 .33 7.79c.336 4.738 1.005 10.43 2.327 14.388.902 2.7 3.06 6.094 6.206 9.442a45.336 45.336 0 0 0 11.749 8.951c9.605-5.167 15.984-13.343 17.968-18.417 1.19-3.041 1.954-8.717 2.419-13.696a189.326 189.326 0 0 0 .603-8.744L22.121 1.523 1.502 7.94z" fill="#C19B48"/><path d="M30.434 21.274a2.493 2.493 0 0 0-1.603-.594h-3.893V17.9c0-1.168-.344-2.01-1.026-2.504-1.077-.784-2.562-.337-2.625-.315a.44.44 0 0 0-.311.417v3.11c0 1.014-.49 1.875-1.456 2.56-.722.512-1.459.736-1.537.761l-.107.026a.915.915 0 0 0-.789-.447H14.21a.912.912 0 0 0-.915.905v8.365c0 .498.411.904.915.904h2.885a.923.923 0 0 0 .703-.326 2.53 2.53 0 0 0 1.83.791h7.695c1.7 0 2.785-.879 2.978-2.417l.996-6.112a2.563 2.563 0 0 0-.863-2.344zm-13.317 9.504a.025.025 0 0 1-.026.025H14.21a.025.025 0 0 1-.026-.025v-8.365c0-.015.01-.026.026-.026h2.885c.014 0 .026.011.026.026v8.365h-.004zm13.295-7.3l-.992 6.124c0 .004 0 .01-.004.018-.137 1.095-.84 1.652-2.096 1.652h-7.696a1.623 1.623 0 0 1-1.596-1.351.58.58 0 0 0-.019-.077v-7.017l.193-.044c.007 0 .011-.004.018-.004.037-.011.915-.256 1.8-.879 1.211-.85 1.848-1.989 1.848-3.292V15.85c.385-.062 1.045-.095 1.522.256.437.319.66.923.66 1.795v3.215c0 .242.2.44.444.44h4.337c.366 0 .733.135 1.025.384.437.37.652.96.556 1.538z" fill="#AB883D"/></symbol><symbol viewBox="0 0 46 51" fill="none" id="services-adv-time"><path d="M45.262 9.212L23.76 2.64 2.639 9.212s0 14.942 2.688 22.988C7.192 37.782 14.16 46.02 23.76 51c9.83-5.21 16.383-13.564 18.431-18.8 2.44-6.236 3.072-22.988 3.072-22.988z" fill="#F4E6C5"/><path fill-rule="evenodd" clip-rule="evenodd" d="M22.118.477l22.02 6.73-.015.385-.5-.02.5.02v.013l-.002.036-.006.143a175.554 175.554 0 0 1-.13 2.533 190.304 190.304 0 0 1-.486 6.458c-.462 4.955-1.233 10.773-2.482 13.967-2.096 5.358-8.738 13.8-18.663 19.06l-.232.123-.233-.12c-4.854-2.52-9.04-5.86-12.25-9.277-3.205-3.41-5.462-6.926-6.425-9.81-1.366-4.087-2.04-9.889-2.377-14.633a141.785 141.785 0 0 1-.332-7.848 76.432 76.432 0 0 1-.004-.491v-.129L.5 7.584v-.01l.5-.001H.5v-.368L22.118.477zM1.502 7.94l.003.284a140.777 140.777 0 0 0 .33 7.79c.336 4.738 1.005 10.43 2.327 14.388.902 2.7 3.06 6.094 6.206 9.442a45.336 45.336 0 0 0 11.749 8.951c9.605-5.167 15.984-13.343 17.968-18.417 1.19-3.041 1.954-8.717 2.419-13.696a189.326 189.326 0 0 0 .603-8.744L22.121 1.523 1.502 7.94z" fill="#C19B48"/><path d="M28.49 14.934H15.313a.372.372 0 0 0-.378.365v1.73c0 .201.17.365.378.365h1.072c.051 1.51.42 2.94 1.074 4.156.708 1.313 1.681 2.259 2.815 2.735.05.02.1.03.15.03a.379.379 0 0 0 .347-.219.36.36 0 0 0-.196-.48c-1.944-.818-3.325-3.345-3.434-6.222h11.35a.372.372 0 0 0 .379-.365v-1.73a.372.372 0 0 0-.378-.365zm-.377 1.73H15.69v-1h12.423v1z" fill="#AB883D"/><path d="M28.49 30.508h-1.07c-.051-1.51-.42-2.94-1.075-4.157-.568-1.055-1.308-1.873-2.166-2.4.717-.444 1.36-1.096 1.882-1.916.669-1.05 1.113-2.33 1.285-3.702a.368.368 0 0 0-.33-.406.375.375 0 0 0-.42.318c-.318 2.537-1.64 4.645-3.367 5.37a.365.365 0 0 0-.227.336c0 .145.09.277.227.335 1.945.817 3.327 3.344 3.435 6.222h-7.931c.13-1.127 1.501-2.017 3.17-2.017 1.203 0 2.325.485 2.859 1.236a.32.32 0 0 0 .436.078.297.297 0 0 0 .08-.421c-.657-.924-1.95-1.499-3.376-1.499-2.019 0-3.675 1.161-3.799 2.623h-.963c.08-2.153.863-4.131 2.128-5.345a.356.356 0 0 0 .003-.516.387.387 0 0 0-.535-.002c-1.404 1.346-2.27 3.518-2.351 5.863h-1.072a.372.372 0 0 0-.378.365v1.73c0 .2.17.364.378.364H28.49a.372.372 0 0 0 .378-.365v-1.73a.372.372 0 0 0-.378-.364zm-.377 1.729H15.69v-1h12.423v1z" fill="#AB883D"/><path d="M21.901 27.483a.38.38 0 0 0 .267-.107.36.36 0 0 0 .11-.258.36.36 0 0 0-.11-.258.385.385 0 0 0-.534 0 .36.36 0 0 0-.11.258c0 .097.04.19.11.258.07.069.168.107.267.107zm0-2.313c-.1 0-.197.039-.267.106a.361.361 0 0 0-.11.258c0 .097.04.19.11.259a.387.387 0 0 0 .534 0 .362.362 0 0 0 .11-.259c0-.095-.04-.19-.11-.258a.388.388 0 0 0-.267-.107zm.267-1.478a.385.385 0 0 0-.534 0 .36.36 0 0 0-.11.258c0 .097.04.19.11.258a.385.385 0 0 0 .534 0 .36.36 0 0 0 .11-.258.36.36 0 0 0-.11-.258zm1.954-1.947c.556-.663.993-1.56 1.263-2.593a.356.356 0 0 0-.068-.313.383.383 0 0 0-.298-.141h-6.235a.383.383 0 0 0-.298.14.355.355 0 0 0-.068.314c.27 1.034.707 1.93 1.263 2.593.641.766 1.41 1.17 2.22 1.17.812 0 1.58-.404 2.221-1.17zm-2.22.44c-1.195 0-2.138-1.32-2.617-2.757h5.233c-.479 1.436-1.422 2.758-2.617 2.758z" fill="#AB883D"/></symbol><symbol viewBox="0 0 54 37" id="slick-left"><path d="M.736 20.268l16.069 16c.98.976 2.57.976 3.55 0a2.49 2.49 0 0 0 0-3.536L8.574 21H51.49c1.386 0 2.51-1.12 2.51-2.5S52.876 16 51.49 16H8.572L20.356 4.268c.98-.977.98-2.56 0-3.536A2.51 2.51 0 0 0 18.58 0a2.51 2.51 0 0 0-1.775.732l-16.07 16c-.98.977-.98 2.56 0 3.536z"/></symbol><symbol viewBox="0 0 54 37" id="slick-right"><path d="M53.264 16.732l-16.07-16a2.519 2.519 0 0 0-3.55 0c-.98.977-.98 2.56 0 3.536L45.427 16H2.511A2.506 2.506 0 0 0 0 18.5C0 19.88 1.124 21 2.51 21h42.917L33.644 32.732c-.98.977-.98 2.56 0 3.536A2.51 2.51 0 0 0 35.42 37a2.51 2.51 0 0 0 1.775-.732l16.07-16c.98-.977.98-2.56 0-3.536z"/></symbol><symbol viewBox="0 0 480.56 480.56" id="tel"><path d="M365.354 317.9c-15.7-15.5-35.3-15.5-50.9 0-11.9 11.8-23.8 23.6-35.5 35.6-3.2 3.3-5.9 4-9.8 1.8-7.7-4.2-15.9-7.6-23.3-12.2-34.5-21.7-63.4-49.6-89-81-12.7-15.6-24-32.3-31.9-51.1-1.6-3.8-1.3-6.3 1.8-9.4 11.9-11.5 23.5-23.3 35.2-35.1 16.3-16.4 16.3-35.6-.1-52.1-9.3-9.4-18.6-18.6-27.9-28-9.6-9.6-19.1-19.3-28.8-28.8-15.7-15.3-35.3-15.3-50.9.1-12 11.8-23.5 23.9-35.7 35.5-11.3 10.7-17 23.8-18.2 39.1-1.9 24.9 4.2 48.4 12.8 71.3 17.6 47.4 44.4 89.5 76.9 128.1 43.9 52.2 96.3 93.5 157.6 123.3 27.6 13.4 56.2 23.7 87.3 25.4 21.4 1.2 40-4.2 54.9-20.9 10.2-11.4 21.7-21.8 32.5-32.7 16-16.2 16.1-35.8.2-51.8-19-19.1-38.1-38.1-57.2-57.1zm-19.1-79.7l36.9-6.3c-5.8-33.9-21.8-64.6-46.1-89-25.7-25.7-58.2-41.9-94-46.9l-5.2 37.1c27.7 3.9 52.9 16.4 72.8 36.3 18.8 18.8 31.1 42.6 35.6 68.8zm57.7-160.4c-42.6-42.6-96.5-69.5-156-77.8l-5.2 37.1c51.4 7.2 98 30.5 134.8 67.2 34.9 34.9 57.8 79 66.1 127.5l36.9-6.3c-9.7-56.2-36.2-107.2-76.6-147.7z"/></symbol><symbol viewBox="0 0 304.36 304.36" id="vk"><path d="M261.945 175.576c10.096 9.857 20.752 19.131 29.807 29.982 4 4.822 7.787 9.798 10.684 15.394 4.105 7.955.387 16.709-6.746 17.184l-44.34-.02c-11.436.949-20.559-3.655-28.23-11.474-6.139-6.253-11.824-12.908-17.727-19.372-2.42-2.642-4.953-5.128-7.979-7.093-6.053-3.929-11.307-2.726-14.766 3.587-3.523 6.421-4.322 13.531-4.668 20.687-.475 10.441-3.631 13.186-14.119 13.664-22.414 1.057-43.686-2.334-63.447-13.641-17.422-9.968-30.932-24.04-42.691-39.971-22.895-31.021-40.428-65.108-56.186-100.15C-2.01 76.458.584 72.22 9.295 72.07c14.465-.281 28.928-.261 43.41-.02 5.879.086 9.771 3.458 12.041 9.012 7.826 19.243 17.402 37.551 29.422 54.521 3.201 4.518 6.465 9.036 11.113 12.216 5.142 3.521 9.057 2.354 11.476-3.374 1.535-3.632 2.207-7.544 2.553-11.434 1.146-13.383 1.297-26.743-.713-40.079-1.234-8.323-5.922-13.711-14.227-15.286-4.238-.803-3.607-2.38-1.555-4.799 3.564-4.172 6.916-6.769 13.598-6.769h50.111c7.889 1.557 9.641 5.101 10.721 13.039l.043 55.663c-.086 3.073 1.535 12.192 7.07 14.226 4.43 1.448 7.35-2.096 10.008-4.905 11.998-12.734 20.561-27.783 28.211-43.366 3.395-6.852 6.314-13.968 9.143-21.078 2.096-5.276 5.385-7.872 11.328-7.757l48.229.043c1.43 0 2.877.021 4.262.258 8.127 1.385 10.354 4.881 7.844 12.817-3.955 12.451-11.65 22.827-19.174 33.251-8.043 11.129-16.645 21.877-24.621 33.072-7.328 10.223-6.746 15.376 2.357 24.255zm0 0" fill-rule="evenodd" clip-rule="evenodd"/></symbol></svg>