<svg version="1" xmlns="http://www.w3.org/2000/svg" width="346.667" height="346.667" viewBox="0 0 260.000000 260.000000"><path d="M96.9 16.4c-.2.2-4.4.7-9.3 1-24.7 1.9-40.7 6.3-51.9 14.4-8.2 5.9-8.1 6.6 1.5 11.1C41.8 45 51.4 49.6 58.5 53c7.2 3.4 16.2 7.7 20 9.5 8.1 3.8 20.6 9.7 35.3 16.6l10.4 4.9 34.1-14.6c18.8-8 35.6-15.2 37.2-15.9 1.7-.8 7.7-3.4 13.5-5.9 5.8-2.5 10.6-5.1 10.8-5.9.6-2.8-7.8-10.6-15.1-14.1-9.7-4.6-23.4-8.1-35.7-9.2-4.1-.3-8.4-.8-9.5-1.1-2.3-.5-62.1-1.3-62.6-.9z"/><path d="M26.5 74.7c.9 10.9 2.7 25.1 4 31.3.3 1.4.8 3.8 1 5.5 4 22.6 15.2 50.1 28.1 69.2 3.6 5.4 6.9 10 7.3 10.3.3.3 1.9 2.1 3.5 4 9 11.2 30.1 30.7 49.4 45.9l4.3 3.4 2.7-2.4c1.5-1.3 2.9-2.6 3.2-2.9.3-.3 4.1-3.4 8.5-7 17.2-14 32.9-29.4 43.1-42.5 21.7-27.7 35.2-65.9 39-109.9.5-6.5.4-7.8-.7-7.4-2.8 1.2-32.5 13.9-35.4 15.2-1.6.8-10.6 4.6-20 8.6-9.3 4-19.3 8.3-22.2 9.6l-5.2 2.4v12.5c0 6.9.1 12.5.3 12.5.6 0 12.7-5.1 19-8 3.6-1.6 9.4-4.1 12.8-5.6 3.5-1.4 8.8-3.7 11.8-5.1 8.6-3.9 10-4.4 10-3.2 0 2.4-6.2 19.3-10.3 28.1-5.2 11-15.4 27.1-23.4 36.5-5.4 6.4-21.2 22.8-21.4 22.1 0-.2-.3-7.5-.6-16.3-.2-8.8-.8-16.2-1.3-16.5-.6-.4-16.7-.5-21.5-.1-.6.1-1.1 1.1-1.2 2.3 0 1.3-.2 8.5-.3 16-.2 7.6-.7 13.8-1.1 13.8-1.4 0-16.6-15.8-23.6-24.5-11.9-14.8-22.9-35.4-29.3-54.8-1.2-3.8-2-7-1.8-7.2.3-.4 41.4 17.2 50.8 21.7 1.4.7 2.8 1.4 3.3 1.6.4.2.7-5.7.7-13.1v-13.4l-12.2-5.8c-6.8-3.2-19.2-9.1-27.6-13.2-8.5-4-15.5-7.3-15.7-7.3-.2 0-6.3-2.9-13.7-6.5-7.3-3.6-13.6-6.5-14-6.5-.5 0-.6 3-.3 6.7z"/></svg>