<svg width="20" height="16" viewBox="0 0 20 16" xmlns="http://www.w3.org/2000/svg">
<path fill-rule="evenodd" clip-rule="evenodd" d="M13.3428 0.292969L18.4141 5.36401H15.5859L11.9287 1.70703C11.5381 1.31665 11.5381 0.68335 11.9287 0.292969C12.3193 -0.0976562 12.9521 -0.0976562 13.3428 0.292969ZM16.5859 6.36401H19.4141L19.707 6.65674C20.0977 7.04736 20.0977 7.68066 19.707 8.07104L19.4141 8.36401H16.5859H14H0V6.36401H14H16.5859ZM15.5859 9.36401L11.9287 13.0208C11.5381 13.4114 11.5381 14.0444 11.9287 14.4351C12.3193 14.8254 12.9521 14.8254 13.3428 14.4351L18.4141 9.36401H15.5859Z" transform="translate(0 0.635986)"/>
</svg>
