<svg width="21" height="26" viewBox="0 0 21 26" xmlns="http://www.w3.org/2000/svg">
<path d="M18.966 6.8268L12.4692 0.334536C12.3561 0.218573 12.2018 0.152258 12.0402 0.149902H3.21442C1.52194 0.149902 0.149902 1.5275 0.149902 3.22683V21.073C0.149902 22.7723 1.52194 24.1499 3.21442 24.1499H16.0854C17.7779 24.1499 19.1499 22.7723 19.1499 21.073V7.25756C19.1476 7.0953 19.0814 6.94047 18.966 6.8268ZM12.7144 6.30376V2.30372L17.0353 6.61143H13.0208C12.8695 6.62951 12.7323 6.52102 12.7144 6.36914C12.7118 6.34746 12.7118 6.3255 12.7144 6.30376ZM17.924 21.073C17.924 22.0926 17.1008 22.9191 16.0853 22.9191H3.21442C2.19895 22.9191 1.37571 22.0926 1.37571 21.073V3.22683C1.37571 2.20726 2.1989 1.38067 3.21442 1.38067H11.4886V6.30376C11.4886 7.15343 12.1746 7.8422 13.0208 7.8422H17.924V21.073Z" transform="translate(0.850098 0.850098)"/>
<path fill-rule="evenodd" clip-rule="evenodd" d="M0 3.22693C0 1.44533 1.43862 0 3.21452 0H12.0425C12.2435 0.00292937 12.4352 0.0852783 12.5759 0.229143C12.5762 0.229388 12.5764 0.229633 12.5767 0.229878L19.0714 6.72002C19.0715 6.72016 19.0712 6.71987 19.0714 6.72002C19.2147 6.86136 19.2971 7.05407 19.3 7.25548L19.3 7.25765L19.3 21.0731C19.3 22.8547 17.8614 24.3 16.0855 24.3H3.21452C1.43862 24.3 0 22.8547 0 21.0731V3.22693ZM3.21452 0.3C1.60545 0.3 0.3 1.60987 0.3 3.22693V21.0731C0.3 22.6901 1.60545 24 3.21452 24H16.0855C17.6945 24 19 22.6901 19 21.0731V7.25884C18.998 7.13631 18.9479 7.01951 18.8609 6.93378L18.8601 6.933L12.3619 0.439397C12.2767 0.352034 12.1607 0.30204 12.0391 0.3H3.21452ZM3.21452 1.53077C2.28241 1.53077 1.52581 2.28962 1.52581 3.22693V21.0731C1.52581 22.0104 2.28246 22.7692 3.21452 22.7692H16.0854C17.0175 22.7692 17.7741 22.0104 17.7741 21.0731V7.9923H13.0209C12.0913 7.9923 11.3387 7.2358 11.3387 6.30386V1.53077H3.21452ZM1.22581 3.22693C1.22581 2.12509 2.11558 1.23077 3.21452 1.23077H11.6387V6.30386C11.6387 7.07126 12.2581 7.6923 13.0209 7.6923H18.0741V21.0731C18.0741 22.1749 17.1843 23.0692 16.0854 23.0692H3.21452C2.11564 23.0692 1.22581 22.175 1.22581 21.0731V3.22693ZM12.5645 1.94247L17.3983 6.76152H13.0289C12.7987 6.78374 12.5928 6.61726 12.5655 6.38684C12.5655 6.38679 12.5655 6.38688 12.5655 6.38684C12.5619 6.35666 12.5616 6.32618 12.5645 6.29595V6.30386L12.7144 6.30376L12.5655 6.28617C12.5651 6.28943 12.5648 6.29269 12.5645 6.29595V1.94247ZM12.8645 2.66517V6.31274L12.8634 6.32155C12.8623 6.33155 12.8623 6.34162 12.8634 6.3515C12.8717 6.42158 12.9347 6.47076 13.0031 6.46258L13.012 6.46152H16.6725L12.8645 2.66517Z" transform="translate(0.850098 0.850098)"/>
</svg>
