<svg width="25" height="28" viewBox="0 0 25 28" xmlns="http://www.w3.org/2000/svg">
<path fill-rule="evenodd" clip-rule="evenodd" d="M1 4.39792C0 4.39792 0 4.39819 0 4.39819L6.31809e-06 4.40496L4.64916e-05 4.42308L0.000356019 4.49157C0.000706792 4.55121 0.00140321 4.63837 0.00278604 4.7503C0.00555128 4.97412 0.0110636 5.29715 0.022055 5.69727C0.0440234 6.49697 0.0879521 7.60729 0.175917 8.85048C0.3498 11.3079 0.701915 14.3887 1.43877 16.5977C1.98117 18.2237 3.21999 20.1315 4.91766 21.9415C6.62697 23.7639 8.85376 25.5436 11.4398 26.8874L11.9059 27.1295L12.3698 26.8833C17.6352 24.088 21.1939 19.5949 22.3459 16.645C23.035 14.8806 23.4381 11.7675 23.675 9.22352C23.7958 7.925 23.8768 6.7298 23.9276 5.85965C23.953 5.42428 23.9709 5.06958 23.9824 4.82315C23.9882 4.69992 23.9924 4.60371 23.9951 4.53799L23.9982 4.46267L23.999 4.44296L23.9993 4.43628C23.9993 4.43628 23.9993 4.43563 23 4.39792L23.9993 4.43628L24.0176 3.95025L23.6474 3.63579L23 4.39792C23.6474 3.63579 23.6474 3.63579 23.6474 3.63579L23.6459 3.63453L23.6441 3.63295L23.6392 3.62888L23.6251 3.61712C23.6137 3.6077 23.5983 3.59514 23.579 3.57967C23.5404 3.54872 23.4861 3.50607 23.4163 3.45342C23.2766 3.34813 23.0747 3.2027 22.8123 3.03069C22.2878 2.68681 21.52 2.23578 20.523 1.78707C18.5279 0.889083 15.6136 0 11.9009 0C8.18737 0 5.31957 0.889523 3.36872 1.79124C2.39433 2.24162 1.64941 2.69464 1.14172 3.0407C0.887802 3.21378 0.692915 3.36031 0.55801 3.4667C0.490545 3.5199 0.43804 3.56309 0.400612 3.59458C0.381896 3.61033 0.366946 3.62316 0.355775 3.63285L0.341853 3.64501L0.33702 3.64928L0.335136 3.65096L0.334327 3.65168C0.334327 3.65168 0.333607 3.65232 1 4.39792ZM2.00477 4.87919C2.08021 4.82396 2.16806 4.76155 2.26819 4.6933C2.69519 4.40224 3.34441 4.00579 4.20786 3.60669C5.93269 2.80944 8.51534 2 11.9009 2C15.2874 2 17.9226 2.80988 19.7022 3.61086C20.5926 4.01162 21.2685 4.41008 21.7158 4.70331C21.8142 4.76779 21.9014 4.82714 21.9774 4.88025C21.9663 5.1063 21.9511 5.39875 21.931 5.74317C21.8811 6.59749 21.8017 7.76874 21.6836 9.03814C21.4423 11.63 21.0527 14.4585 20.4829 15.9175C19.5516 18.3023 16.5175 22.2611 11.8959 24.863C9.72405 23.6649 7.84069 22.1344 6.37641 20.5732C4.79673 18.889 3.75627 17.2248 3.336 15.9648C2.68547 14.0146 2.34389 11.1538 2.17093 8.70931C2.08547 7.50156 2.04269 6.4209 2.0213 5.64235C2.01293 5.33781 2.00785 5.07991 2.00477 4.87919ZM1 4.39792L0.334327 3.65168L0 3.95049V4.39819L1 4.39792Z"/>
<path fill-rule="evenodd" clip-rule="evenodd" d="M12 14C13.6569 14 15 12.6569 15 11C15 9.34315 13.6569 8 12 8C10.3431 8 9 9.34315 9 11C9 12.6569 10.3431 14 12 14ZM12 16C14.7614 16 17 13.7614 17 11C17 8.23858 14.7614 6 12 6C9.23858 6 7 8.23858 7 11C7 13.7614 9.23858 16 12 16Z"/>
</svg>
