<svg width="26" height="26" viewBox="0 0 26 26" xmlns="http://www.w3.org/2000/svg">
<path d="M13 1C6.37259 1 1 6.37259 1 13C1 19.6274 6.37259 25 13 25C19.6274 25 25 19.6274 25 13C24.9915 6.37613 19.6239 1.00849 13 1ZM13.5148 23.9447V21.834C13.5148 21.5497 13.2843 21.3192 13 21.3192C12.7157 21.3192 12.4852 21.5497 12.4852 21.834V23.9447C6.84035 23.6752 2.32484 19.1597 2.05534 13.5148H4.16602C4.45032 13.5148 4.68082 13.2843 4.68082 13C4.68082 12.7157 4.45032 12.4852 4.16602 12.4852H2.05534C2.32484 6.84035 6.84035 2.32484 12.4852 2.05534V4.16602C12.4852 4.45032 12.7157 4.68082 13 4.68082C13.2843 4.68082 13.5148 4.45032 13.5148 4.16602V2.05534C19.1597 2.32484 23.6752 6.84035 23.9447 12.4852H21.834C21.5497 12.4852 21.3192 12.7157 21.3192 13C21.3192 13.2843 21.5497 13.5148 21.834 13.5148H23.9498C23.6801 19.1615 19.1616 23.6777 13.5148 23.9447Z"/>
<path d="M18.4311 17.7874L13.5147 12.7887V7.59439C13.5147 7.31009 13.2842 7.07959 12.9999 7.07959C12.7156 7.07959 12.4851 7.31009 12.4851 7.59439V12.9998C12.4857 13.1349 12.5393 13.2643 12.6344 13.3602L17.6949 18.5082C17.8939 18.7114 18.2201 18.7149 18.4233 18.5159C18.6266 18.3168 18.6301 17.9907 18.4311 17.7874Z"/>
<path d="M13 1C6.37259 1 1 6.37259 1 13C1 19.6274 6.37259 25 13 25C19.6274 25 25 19.6274 25 13C24.9915 6.37613 19.6239 1.00849 13 1ZM13.5148 23.9447V21.834C13.5148 21.5497 13.2843 21.3192 13 21.3192C12.7157 21.3192 12.4852 21.5497 12.4852 21.834V23.9447C6.84035 23.6752 2.32484 19.1597 2.05534 13.5148H4.16602C4.45032 13.5148 4.68082 13.2843 4.68082 13C4.68082 12.7157 4.45032 12.4852 4.16602 12.4852H2.05534C2.32484 6.84035 6.84035 2.32484 12.4852 2.05534V4.16602C12.4852 4.45032 12.7157 4.68082 13 4.68082C13.2843 4.68082 13.5148 4.45032 13.5148 4.16602V2.05534C19.1597 2.32484 23.6752 6.84035 23.9447 12.4852H21.834C21.5497 12.4852 21.3192 12.7157 21.3192 13C21.3192 13.2843 21.5497 13.5148 21.834 13.5148H23.9498C23.6801 19.1615 19.1616 23.6777 13.5148 23.9447Z"/>
<path d="M18.4311 17.7874L13.5147 12.7887V7.59439C13.5147 7.31009 13.2842 7.07959 12.9999 7.07959C12.7156 7.07959 12.4851 7.31009 12.4851 7.59439V12.9998C12.4857 13.1349 12.5393 13.2643 12.6344 13.3602L17.6949 18.5082C17.8939 18.7114 18.2201 18.7149 18.4233 18.5159C18.6266 18.3168 18.6301 17.9907 18.4311 17.7874Z"/>
<path d="M13 1L13.0003 0.8H13V1ZM25 13L25.2 13L25.2 12.9997L25 13ZM13.5148 23.9447H13.3148V24.1543L13.5242 24.1444L13.5148 23.9447ZM12.4852 23.9447L12.4757 24.1444L12.6852 24.1544V23.9447H12.4852ZM2.05534 13.5148V13.3148H1.84556L1.85557 13.5243L2.05534 13.5148ZM2.05534 12.4852L1.85557 12.4757L1.84556 12.6852H2.05534V12.4852ZM12.4852 2.05534H12.6852V1.84556L12.4757 1.85557L12.4852 2.05534ZM13.5148 2.05534L13.5243 1.85557L13.3148 1.84556V2.05534H13.5148ZM23.9447 12.4852V12.6852H24.1544L24.1444 12.4757L23.9447 12.4852ZM23.9498 13.5148L24.1496 13.5243L24.1596 13.3148H23.9498V13.5148ZM18.4311 17.7874L18.574 17.6475L18.5736 17.6472L18.4311 17.7874ZM13.5147 12.7887H13.3147V12.8706L13.3721 12.929L13.5147 12.7887ZM12.4851 12.9998L12.2851 12.9998L12.2851 13.0007L12.4851 12.9998ZM12.6344 13.3602L12.777 13.22L12.7764 13.2193L12.6344 13.3602ZM17.6949 18.5082L17.8378 18.3682L17.8375 18.368L17.6949 18.5082ZM13 0.8C6.26213 0.8 0.8 6.26213 0.8 13H1.2C1.2 6.48304 6.48304 1.2 13 1.2V0.8ZM0.8 13C0.8 19.7379 6.26213 25.2 13 25.2V24.8C6.48304 24.8 1.2 19.517 1.2 13H0.8ZM13 25.2C19.7379 25.2 25.2 19.7379 25.2 13H24.8C24.8 19.517 19.517 24.8 13 24.8V25.2ZM25.2 12.9997C25.1914 6.26561 19.7344 0.808636 13.0003 0.8L12.9997 1.2C19.5134 1.20835 24.7916 6.48664 24.8 13.0003L25.2 12.9997ZM13.7148 23.9447V21.834H13.3148V23.9447H13.7148ZM13.7148 21.834C13.7148 21.4392 13.3948 21.1192 13 21.1192V21.5192C13.1738 21.5192 13.3148 21.6601 13.3148 21.834H13.7148ZM13 21.1192C12.6052 21.1192 12.2852 21.4392 12.2852 21.834H12.6852C12.6852 21.6601 12.8262 21.5192 13 21.5192V21.1192ZM12.2852 21.834V23.9447H12.6852V21.834H12.2852ZM12.4947 23.7449C6.95284 23.4803 2.5197 19.0472 2.25511 13.5053L1.85557 13.5243C2.12998 19.2722 6.72785 23.87 12.4757 24.1444L12.4947 23.7449ZM2.05534 13.7148H4.16602V13.3148H2.05534V13.7148ZM4.16602 13.7148C4.56078 13.7148 4.88082 13.3948 4.88082 13H4.48082C4.48082 13.1738 4.33987 13.3148 4.16602 13.3148V13.7148ZM4.88082 13C4.88082 12.6052 4.56078 12.2852 4.16602 12.2852V12.6852C4.33986 12.6852 4.48082 12.8262 4.48082 13H4.88082ZM4.16602 12.2852H2.05534V12.6852H4.16602V12.2852ZM2.25511 12.4947C2.5197 6.95284 6.95284 2.5197 12.4947 2.25511L12.4757 1.85557C6.72785 2.12998 2.12998 6.72785 1.85557 12.4757L2.25511 12.4947ZM12.2852 2.05534V4.16602H12.6852V2.05534H12.2852ZM12.2852 4.16602C12.2852 4.56078 12.6052 4.88082 13 4.88082V4.48082C12.8262 4.48082 12.6852 4.33986 12.6852 4.16602H12.2852ZM13 4.88082C13.3948 4.88082 13.7148 4.56078 13.7148 4.16602H13.3148C13.3148 4.33987 13.1738 4.48082 13 4.48082V4.88082ZM13.7148 4.16602V2.05534H13.3148V4.16602H13.7148ZM13.5053 2.25511C19.0472 2.5197 23.4803 6.95284 23.7449 12.4947L24.1444 12.4757C23.87 6.72785 19.2722 2.12998 13.5243 1.85557L13.5053 2.25511ZM23.9447 12.2852H21.834V12.6852H23.9447V12.2852ZM21.834 12.2852C21.4392 12.2852 21.1192 12.6052 21.1192 13H21.5192C21.5192 12.8262 21.6601 12.6852 21.834 12.6852V12.2852ZM21.1192 13C21.1192 13.3948 21.4392 13.7148 21.834 13.7148V13.3148C21.6601 13.3148 21.5192 13.1738 21.5192 13H21.1192ZM23.75 13.5053C23.4853 19.049 19.0492 23.4828 13.5054 23.7449L13.5242 24.1444C19.2741 23.8726 23.875 19.2741 24.1496 13.5243L23.75 13.5053ZM18.5736 17.6472L13.6573 12.6485L13.3721 12.929L18.2885 17.9277L18.5736 17.6472ZM13.7147 12.7887V7.59439H13.3147V12.7887H13.7147ZM13.7147 7.59439C13.7147 7.19963 13.3947 6.87959 12.9999 6.87959V7.27959C13.1737 7.27959 13.3147 7.42055 13.3147 7.59439H13.7147ZM12.9999 6.87959C12.6052 6.87959 12.2851 7.19964 12.2851 7.59439H12.6851C12.6851 7.42055 12.8261 7.27959 12.9999 7.27959V6.87959ZM12.2851 7.59439V12.9998H12.6851V7.59439H12.2851ZM12.2851 13.0007C12.2859 13.1882 12.3603 13.3679 12.4924 13.501L12.7764 13.2193C12.7182 13.1607 12.6855 13.0816 12.6851 12.9989L12.2851 13.0007ZM12.4918 13.5004L17.5523 18.6484L17.8375 18.368L12.777 13.22L12.4918 13.5004ZM17.552 18.6481C17.8283 18.9303 18.281 18.9351 18.5633 18.6588L18.2834 18.373C18.1591 18.4947 17.9596 18.4926 17.8378 18.3682L17.552 18.6481ZM18.5633 18.6588C18.8454 18.3825 18.8503 17.9297 18.574 17.6475L18.2881 17.9274C18.4099 18.0517 18.4078 18.2512 18.2834 18.373L18.5633 18.6588ZM21.834 13.7148H23.9498V13.3148H21.834V13.7148Z"/>
</svg>
