<svg width="24" height="24" viewBox="0 0 24 24" xmlns="http://www.w3.org/2000/svg">
<path d="M20.4836 3.51639C18.2164 1.24918 15.2066 0 12 0C8.79344 0 5.78361 1.24918 3.51639 3.51639C1.24918 5.78361 0 8.79344 0 12C0 15.2066 1.24918 18.2164 3.51639 20.4836C5.78361 22.7508 8.79344 24 12 24C13.9525 24 15.8852 23.523 17.6016 22.6131C18.0344 22.3869 18.1967 21.8508 17.9705 21.418C17.7443 20.9852 17.2082 20.823 16.7754 21.0492C15.3148 21.8213 13.6672 22.2295 12 22.2295C6.35902 22.2295 1.77049 17.641 1.77049 12C1.77049 6.35902 6.35902 1.77049 12 1.77049C17.641 1.77049 22.2295 6.35902 22.2295 12C22.2295 13.8984 21.6984 14.9803 21.2508 15.5508C20.7738 16.1656 20.1344 16.5148 19.4951 16.5148C18.6049 16.5148 17.7049 15.8066 17.7049 14.223V7.33279C17.7049 6.8459 17.3066 6.44754 16.8197 6.44754C16.3328 6.44754 15.9344 6.8459 15.9344 7.33279V7.72131C14.8328 6.61475 13.3131 5.93115 11.6311 5.93115C8.28197 5.92623 5.55738 8.65082 5.55738 12C5.55738 15.3492 8.28197 18.0738 11.6311 18.0738C12.2262 18.0738 12.8115 17.9902 13.3721 17.818C13.8393 17.6803 14.1049 17.1836 13.9672 16.7164C13.8295 16.2492 13.3328 15.9836 12.8656 16.1213C12.4672 16.2393 12.0492 16.3033 11.6311 16.3033C9.26066 16.3033 7.32787 14.3754 7.32787 12C7.32787 9.62951 9.25574 7.69672 11.6311 7.69672C14.0066 7.69672 15.9344 9.62459 15.9344 12V14.223C15.9344 16.8885 17.7246 18.2852 19.4951 18.2852C20.6803 18.2852 21.8311 17.6852 22.6475 16.6377C23.5328 15.5016 24 13.8984 24 12C24 8.79344 22.7508 5.78361 20.4836 3.51639Z"/>
</svg>
