<svg width="51" height="61" viewBox="0 0 51 61" xmlns="http://www.w3.org/2000/svg">
<path d="M50.3448 14.0561L34.9095 0.282351C34.7264 0.0982089 34.5434 0 34.2628 0H0.915138C0.366055 0 0 0.368283 0 0.920708V60.0793C0 60.6317 0.366055 61 0.915138 61H49.7957C50.3448 61 50.7108 60.6317 50.7108 60.0793V14.6945C50.7108 14.5104 50.5278 14.2403 50.3448 14.0561ZM35.1901 2.95854L47.3187 13.7738H35.1901V2.95854ZM48.8684 59.1586H1.83028V1.85369H33.3476V14.7068C33.3476 15.2592 33.7137 15.6275 34.2628 15.6275H48.8684V59.1586Z"/>
<path d="M28.0155 32.9122H6.71104C6.16196 32.9122 5.7959 33.2805 5.7959 33.833C5.7959 34.3854 6.16196 34.7537 6.71104 34.7537H28.0277C28.5767 34.7537 28.9428 34.3854 28.9428 33.833C28.9428 33.2805 28.5767 32.9122 28.0155 32.9122Z"/>
<path d="M28.0155 39.5659H6.71104C6.16196 39.5659 5.7959 39.9342 5.7959 40.4866C5.7959 41.039 6.16196 41.4073 6.71104 41.4073H28.0277C28.5767 41.4073 28.9428 41.039 28.9428 40.4866C28.9428 39.9342 28.5767 39.5659 28.0155 39.5659Z"/>
<path d="M28.0155 46.2196H6.71104C6.16196 46.2196 5.7959 46.5878 5.7959 47.1403C5.7959 47.6927 6.16196 48.061 6.71104 48.061H28.0277C28.5767 48.061 28.9428 47.6927 28.9428 47.1403C28.9428 46.5878 28.5767 46.2196 28.0155 46.2196Z"/>
<path d="M28.0155 52.8732H6.71104C6.16196 52.8732 5.7959 53.2415 5.7959 53.7939C5.7959 54.3464 6.16196 54.7146 6.71104 54.7146H28.0277C28.5767 54.7146 28.9428 54.3464 28.9428 53.7939C28.9428 53.2415 28.5767 52.8732 28.0155 52.8732Z"/>
<path d="M20.3038 17.3952H18.1929C21.3166 16.9287 23.6105 14.3508 23.6105 11.1099C23.6105 7.5989 20.7675 4.72629 17.2656 4.72629C13.7637 4.72629 10.9206 7.58662 10.9206 11.1099C10.9206 14.3508 13.3122 17.027 16.3382 17.3952H14.2273C10.0909 17.3952 6.69879 20.8203 6.69879 24.9696V26.4427C6.97943 26.9952 7.34549 27.3634 7.89457 27.3634H26.9172C27.4663 27.3634 27.8324 26.9952 27.8324 26.4427V24.9696C27.8324 20.808 24.4281 17.3952 20.3038 17.3952ZM12.7143 11.0976C12.7143 8.60554 14.7398 6.5677 17.2168 6.5677C19.6937 6.5677 21.9633 8.60554 21.9633 11.0976C21.9633 13.5896 19.6937 15.6275 17.2168 15.6275C14.7398 15.6275 12.7143 13.5896 12.7143 11.0976ZM26.0997 25.5097H8.57787V24.9573C8.57787 21.8146 11.1525 19.2244 14.2761 19.2244H20.4015C23.5251 19.2244 26.0997 21.8146 26.0997 24.9573V25.5097Z"/>
<path d="M46.6965 32.6054C46.5745 32.2616 46.2451 32.0161 45.879 32.0161H41.3643L39.9733 27.6949C39.8513 27.3512 39.5341 27.1057 39.1558 27.1057C38.7775 27.1057 38.4481 27.3389 38.3383 27.6949L36.9473 32.0161H32.4326C32.0543 32.0161 31.7249 32.2494 31.6151 32.6054C31.4931 32.9614 31.6151 33.3419 31.9201 33.5629L35.5685 36.2268L34.1775 40.548C34.0554 40.904 34.1775 41.2846 34.4825 41.5055C34.7754 41.7265 35.178 41.7265 35.4831 41.5055L39.1436 38.8416L42.792 41.5055C42.9384 41.616 43.1214 41.6651 43.2922 41.6651C43.4631 41.6651 43.6461 41.616 43.8291 41.5055C44.122 41.2846 44.244 40.904 44.1342 40.548L42.7432 36.2268L46.3915 33.5629C46.6843 33.3419 46.8064 32.9614 46.6965 32.6054ZM41.1935 35.2079C40.9007 35.4289 40.7787 35.8094 40.8885 36.1654L41.6572 38.5593L39.6317 37.0739C39.3388 36.8529 38.9362 36.8529 38.6311 37.0739L36.6056 38.5593L37.3743 36.1654C37.4964 35.8094 37.3743 35.4289 37.0693 35.2079L35.0438 33.7225H37.5452C37.9234 33.7225 38.2529 33.4892 38.3627 33.1332L39.1314 30.7394L39.9001 33.1332C40.0221 33.477 40.3516 33.7225 40.7176 33.7225H43.219L41.1935 35.2079Z"/>
<path d="M46.6965 48.1346C46.5745 47.7909 46.2451 47.5454 45.879 47.5454H41.3643L39.9733 43.2242C39.8513 42.8805 39.5341 42.6349 39.1558 42.6349C38.7775 42.6349 38.4481 42.8682 38.3383 43.2242L36.9473 47.5454H32.4326C32.0543 47.5454 31.7249 47.7786 31.6151 48.1346C31.4931 48.4906 31.6151 48.8712 31.9201 49.0922L35.5685 51.7561L34.1775 56.0773C34.0554 56.4333 34.1775 56.8138 34.4825 57.0348C34.7754 57.2558 35.178 57.2558 35.4831 57.0348L39.1436 54.3709L42.792 57.0348C42.9384 57.1453 43.1214 57.1944 43.2922 57.1944C43.4631 57.1944 43.6461 57.1453 43.8291 57.0348C44.122 56.8138 44.244 56.4333 44.1342 56.0773L42.7432 51.7561L46.3915 49.0922C46.6843 48.8712 46.8064 48.4906 46.6965 48.1346ZM41.1935 50.7372C40.9007 50.9581 40.7787 51.3387 40.8885 51.6947L41.6572 54.0886L39.6317 52.6031C39.3388 52.3822 38.9362 52.3822 38.6311 52.6031L36.6056 54.0886L37.3743 51.6947C37.4964 51.3387 37.3743 50.9581 37.0693 50.7372L35.0438 49.2518H37.5452C37.9234 49.2518 38.2529 49.0185 38.3627 48.6625L39.1314 46.2687L39.9001 48.6625C40.0221 49.0062 40.3516 49.2518 40.7176 49.2518H43.219L41.1935 50.7372Z"/>
</svg>
