<svg width="70" height="61" viewBox="0 0 70 61" xmlns="http://www.w3.org/2000/svg">
<path d="M69.7507 19.2115C69.7827 19.173 69.8108 19.1322 69.8368 19.0903C69.8418 19.0821 69.8466 19.0739 69.8514 19.0657C69.8738 19.0273 69.8942 18.9882 69.9116 18.9478C69.9127 18.9453 69.9139 18.943 69.915 18.9404C69.9329 18.898 69.9474 18.8544 69.9597 18.8104C69.9626 18.8 69.9651 18.7893 69.9677 18.7787C69.9767 18.7419 69.984 18.7049 69.9892 18.6673C69.9904 18.6587 69.992 18.6502 69.9931 18.6415C69.9982 18.5971 70.0004 18.5526 70 18.5077C70 18.4978 69.9991 18.4877 69.9987 18.4778C69.9974 18.4398 69.9939 18.4018 69.9886 18.3639C69.9872 18.3546 69.9863 18.3455 69.9848 18.3362C69.9771 18.2906 69.9666 18.2454 69.953 18.2007C69.9514 18.1951 69.9491 18.1896 69.9473 18.1839C69.9344 18.144 69.9188 18.1048 69.9012 18.0661C69.8989 18.0609 69.8975 18.0555 69.895 18.0503C69.8933 18.0466 69.8909 18.0435 69.8892 18.0399C69.8685 17.9978 69.8456 17.9564 69.8191 17.9165C69.8165 17.9125 69.8135 17.9091 69.8109 17.9053C69.7935 17.8798 69.7756 17.8546 69.7558 17.8304L55.537 0.402564C55.3292 0.147811 55.0172 -9.77003e-08 54.6877 -9.77003e-08H54.4754C54.4722 -9.77003e-08 54.4691 -9.77003e-08 54.4659 -9.77003e-08H35.008C35.0079 -9.77003e-08 35.0077 -9.77003e-08 35.0077 -9.77003e-08H15.3126C15.3105 -9.77003e-08 15.3086 0.000272476 15.3066 0.000272476C15.2698 0.000544939 15.2328 0.00245193 15.1958 0.00640265C15.1936 0.00667511 15.1913 0.0066754 15.1891 0.00681164C15.1498 0.0113073 15.1105 0.0178464 15.0713 0.0267014C15.0643 0.0283362 15.0576 0.0307884 15.0506 0.0324231C15.0225 0.0393709 14.9944 0.0464552 14.9664 0.0557189C14.9642 0.0564001 14.9623 0.0574896 14.9601 0.0581708C14.9463 0.0628027 14.9331 0.068797 14.9194 0.0739738C14.8963 0.0828289 14.8731 0.0916841 14.8509 0.102038C14.8387 0.107623 14.8271 0.114162 14.8152 0.120293C14.7921 0.132008 14.7692 0.143997 14.7472 0.157211C14.7364 0.16375 14.726 0.170834 14.7154 0.177646C14.6932 0.192086 14.6714 0.206936 14.6505 0.222739C14.6405 0.230368 14.6307 0.238269 14.6208 0.246307C14.6004 0.262927 14.5807 0.280092 14.5616 0.298075C14.5523 0.306794 14.5431 0.315649 14.5341 0.324776C14.5154 0.343712 14.4976 0.363466 14.4803 0.383628C14.4747 0.390167 14.4684 0.395889 14.4631 0.402564L0.244362 17.8307C0.224527 17.8549 0.206744 17.8801 0.189234 17.9056C0.186635 17.9094 0.183626 17.913 0.181026 17.9168C0.154488 17.9567 0.131644 17.9981 0.110988 18.0402C0.10921 18.0437 0.106884 18.0469 0.105106 18.0505C0.102644 18.0557 0.101276 18.0612 0.0989503 18.0663C0.0813039 18.1049 0.0657094 18.1441 0.0528508 18.1841C0.0510725 18.1898 0.048747 18.1952 0.0469687 18.2009C0.0332893 18.2456 0.022893 18.2909 0.0152326 18.3365C0.0137278 18.3456 0.0127703 18.3549 0.0114023 18.3642C0.00606738 18.402 0.00264754 18.4399 0.00127961 18.478C0.000869226 18.4881 0.000185258 18.4981 4.84639e-05 18.508C-0.000361917 18.5527 0.00182678 18.5974 0.00688815 18.6418C0.0078457 18.6504 0.00962402 18.659 0.0108552 18.6675C0.0160533 18.705 0.0233034 18.7421 0.0323318 18.779C0.0349308 18.7896 0.0373931 18.8001 0.0402658 18.8107C0.0525772 18.8547 0.0670773 18.8983 0.0849973 18.9407C0.0860917 18.9431 0.0873228 18.9456 0.0884172 18.948C0.10579 18.9884 0.126172 19.0276 0.148606 19.0659C0.153394 19.0742 0.158319 19.0824 0.16338 19.0905C0.189371 19.1324 0.217414 19.1731 0.249423 19.2116L34.1521 60.5989C34.1573 60.6053 34.1634 60.6108 34.1688 60.6171C34.1861 60.6374 34.2041 60.6571 34.2229 60.676C34.227 60.6801 34.2306 60.6849 34.2347 60.6888C34.2389 60.6931 34.2439 60.6966 34.2484 60.7007C34.2489 60.7012 34.2495 60.7017 34.25 60.7022C34.2693 60.7203 34.2892 60.7376 34.3098 60.7544C34.3194 60.7621 34.329 60.7699 34.3388 60.7773C34.3478 60.7841 34.3565 60.7913 34.3658 60.7978C34.3669 60.7987 34.3681 60.7993 34.3693 60.8002C34.3807 60.8082 34.3928 60.8153 34.4045 60.8228C34.4147 60.8294 34.4249 60.8364 34.4354 60.8427C34.4548 60.8542 34.4751 60.8649 34.4953 60.8754C34.5032 60.8794 34.5109 60.8839 34.5188 60.8879C34.5255 60.8912 34.5322 60.8946 34.5389 60.8977C34.5616 60.9082 34.5852 60.9172 34.6088 60.9262C34.622 60.9312 34.6347 60.9369 34.6481 60.9414C34.6502 60.9421 34.6521 60.9431 34.6541 60.9437C34.6559 60.9443 34.6578 60.9446 34.6597 60.9451C34.6701 60.9485 34.6808 60.9506 34.6913 60.9537C34.7283 60.9646 34.7657 60.9734 34.8039 60.9804C34.8121 60.9819 34.8203 60.9849 34.8285 60.9862C34.8358 60.9873 34.8432 60.9872 34.8504 60.9883C34.8958 60.9946 34.9417 60.9985 34.988 60.999C34.9921 60.999 34.9961 61 35.0002 61H35.0003H35.0005C35.0046 61 35.0085 60.999 35.0127 60.999C35.059 60.9985 35.1049 60.9946 35.1503 60.9883C35.1575 60.9873 35.1649 60.9875 35.1722 60.9862C35.1804 60.9849 35.1886 60.9819 35.1968 60.9804C35.2349 60.9734 35.2724 60.9644 35.3094 60.9537C35.3198 60.9506 35.3304 60.9485 35.3408 60.9451C35.3426 60.9446 35.3445 60.9444 35.3464 60.9437C35.3485 60.9431 35.3504 60.9421 35.3525 60.9414C35.3657 60.9369 35.3786 60.9312 35.3917 60.9262C35.4154 60.9172 35.4389 60.9082 35.4616 60.8977C35.4685 60.8946 35.4752 60.8912 35.4819 60.8877C35.4898 60.8839 35.4973 60.8794 35.5051 60.8755C35.5255 60.865 35.5457 60.8544 35.5652 60.8427C35.5757 60.8364 35.5858 60.8294 35.5961 60.8228C35.608 60.8151 35.6203 60.8079 35.6318 60.7997C35.6327 60.7991 35.6337 60.7985 35.6347 60.798C35.644 60.7914 35.6526 60.7841 35.6617 60.7773C35.6716 60.7698 35.6812 60.7621 35.6907 60.7544C35.7114 60.7376 35.7314 60.7203 35.7505 60.7022C35.7513 60.7015 35.7522 60.7008 35.753 60.7C35.7571 60.6961 35.7616 60.6928 35.7657 60.6888C35.7699 60.6848 35.7735 60.68 35.7776 60.6759C35.7965 60.6568 35.8144 60.6371 35.8318 60.6169C35.8371 60.6107 35.8431 60.6052 35.8485 60.5988L69.7507 19.2115ZM14.9048 3.31792L19.6276 17.4282H3.39294L14.9048 3.31792ZM50.3115 14.8987C50.4167 14.9302 50.5227 14.9451 50.6271 14.9451C51.0975 14.9451 51.5323 14.6407 51.6747 14.1689L54.9899 3.18836L66.6073 17.4281H49.7399L37.2993 2.17971H53.009L49.5787 13.5413C49.4046 14.1177 49.7327 14.7255 50.3115 14.8987ZM16.8309 2.17971H32.7379L21.5441 16.2613L16.8309 2.17971ZM35.0111 2.83171L46.9196 17.4281H26.1085C25.5041 17.4281 25.0141 17.9161 25.0141 18.518C25.0141 19.1198 25.5041 19.6078 26.1085 19.6078H47.336L35.0001 56.4635L22.3713 18.7325L35.0111 2.83171ZM37.9264 54.6135L49.643 19.6079H66.6013L37.9264 54.6135ZM20.3571 19.6078L32.0738 54.6133L3.39882 19.6078H20.3571Z"/>
</svg>
