<svg width="50" height="61" viewBox="0 0 50 61" xmlns="http://www.w3.org/2000/svg">
<path d="M49.4216 9.62621L39.1687 5.42459L37.234 0.562701C37.2279 0.547332 37.2202 0.532797 37.2132 0.517785C37.2085 0.507897 37.2043 0.49777 37.1994 0.488119C37.1804 0.450709 37.1593 0.414848 37.1355 0.380774C37.131 0.37434 37.1259 0.368621 37.1212 0.362307C37.1005 0.334428 37.0783 0.30774 37.0545 0.282602C37.0465 0.274024 37.0384 0.265445 37.03 0.257225C37.0021 0.229703 36.9729 0.203492 36.9416 0.179902C36.9397 0.178473 36.938 0.176805 36.936 0.175375C36.9028 0.150832 36.8674 0.129148 36.831 0.109252C36.8208 0.103772 36.8105 0.0987676 36.8001 0.0936446C36.7706 0.0791094 36.7403 0.0661231 36.7091 0.0546856C36.6997 0.0512305 36.6906 0.0472988 36.6811 0.0442012C36.6772 0.0428906 36.6735 0.0411035 36.6697 0.0399121C36.6336 0.0287129 36.5968 0.0204922 36.56 0.0140586C36.5511 0.0125098 36.5419 0.0117949 36.5329 0.0104844C36.4974 0.00536133 36.4619 0.00250195 36.4262 0.00178711C36.4196 0.00142969 36.4134 0 36.407 0H13.5688C13.5619 0 13.5553 0.00154883 13.5484 0.00166797C13.5138 0.00250195 13.4794 0.00524219 13.4451 0.010127C13.4353 0.0115566 13.4254 0.0122715 13.4158 0.0139395C13.3791 0.0203731 13.3427 0.0284746 13.3067 0.0396738C13.3027 0.0408653 13.2991 0.0426524 13.2953 0.0439629C13.2858 0.0470606 13.2767 0.0509922 13.2673 0.0544473C13.2361 0.0657656 13.2057 0.078752 13.1763 0.0934063C13.1659 0.0985293 13.1556 0.103533 13.1454 0.109014C13.109 0.128791 13.0735 0.150475 13.0404 0.175137C13.0385 0.176566 13.0367 0.178234 13.0348 0.179664C13.0035 0.203254 12.9742 0.229465 12.9464 0.256986C12.938 0.265326 12.9299 0.273785 12.9218 0.282363C12.8983 0.307621 12.8759 0.33419 12.8552 0.362069C12.8506 0.368383 12.8454 0.374102 12.8409 0.380535C12.8172 0.41449 12.7961 0.450471 12.777 0.487762C12.772 0.497531 12.7677 0.507539 12.7632 0.517428C12.7562 0.53244 12.7485 0.546856 12.7424 0.562344L10.8072 5.42447L0.55433 9.62621C0.219076 9.76358 0 10.0911 0 10.455V19.9472C0 20.4416 0.398796 20.8422 0.890533 20.8422C1.38227 20.8422 1.78107 20.4414 1.78107 19.9472V11.0566L11.3183 7.14808L17.0874 16.4318C17.232 16.6646 17.475 16.8178 17.7466 16.8474C17.7786 16.8509 17.8109 16.8527 17.8428 16.8527L17.8456 16.8526C17.8532 16.8526 17.8607 16.8516 17.8683 16.8514C17.8924 16.8507 17.9167 16.8495 17.9407 16.8468C17.9523 16.8455 17.9637 16.8434 17.9753 16.8416C17.9951 16.8386 18.0148 16.8354 18.0342 16.8311C18.0467 16.8284 18.0589 16.8249 18.0713 16.8217C18.0896 16.8168 18.1076 16.8116 18.1256 16.8056C18.138 16.8015 18.1502 16.7969 18.1624 16.7923C18.1798 16.7855 18.197 16.7782 18.2142 16.7704C18.2259 16.7649 18.2377 16.7595 18.2492 16.7536C18.2663 16.7447 18.2831 16.735 18.2998 16.7251C18.3103 16.7188 18.321 16.7127 18.3313 16.7058C18.3491 16.6941 18.3662 16.6812 18.3832 16.6681C18.3915 16.6617 18.4002 16.6559 18.4082 16.6492C18.4329 16.6288 18.4569 16.6071 18.4794 16.584L19.2196 15.8239L21.1312 18.0717L18.7002 30.6429C18.6065 31.1281 18.9217 31.5978 19.4046 31.6921C19.4342 31.6979 19.4637 31.702 19.493 31.7048C19.5014 31.7056 19.5098 31.7055 19.5182 31.706C19.5373 31.7071 19.5565 31.7087 19.5755 31.7087C19.5773 31.7087 19.579 31.7085 19.5807 31.7085C19.5883 31.7085 19.5959 31.7077 19.6034 31.7075C19.6237 31.7068 19.644 31.7058 19.664 31.7038C19.6741 31.7029 19.6839 31.7012 19.6938 31.6999C19.7111 31.6975 19.7284 31.6949 19.7456 31.6915C19.7564 31.6894 19.7669 31.6869 19.7775 31.6844C19.7935 31.6806 19.8094 31.6765 19.8251 31.6719C19.8359 31.6687 19.8466 31.6653 19.8573 31.6618C19.8726 31.6566 19.8875 31.6509 19.9025 31.645C19.913 31.6408 19.9234 31.6367 19.9336 31.6321C19.9484 31.6255 19.9629 31.6183 19.9775 31.6109C19.9872 31.6059 19.9969 31.6012 20.0064 31.596C20.0219 31.5873 20.037 31.5778 20.052 31.5682C20.0597 31.5632 20.0677 31.5588 20.0753 31.5536C20.097 31.5387 20.1182 31.523 20.1386 31.506C20.1453 31.5004 20.1517 31.4942 20.1584 31.4884C20.172 31.4765 20.1856 31.4646 20.1987 31.4518C20.2066 31.444 20.214 31.4356 20.2217 31.4275C20.2326 31.4158 20.2435 31.4043 20.2538 31.392C20.2614 31.383 20.2685 31.3737 20.2759 31.3644C20.2853 31.3521 20.2947 31.3397 20.3036 31.3268C20.3105 31.3171 20.317 31.3071 20.3234 31.2969C20.3319 31.2836 20.34 31.27 20.3478 31.2561C20.3536 31.2458 20.3593 31.2356 20.3648 31.2251C20.3724 31.2103 20.3793 31.1952 20.3861 31.1797C20.3906 31.1695 20.3954 31.1593 20.3995 31.149C20.4064 31.1317 20.4124 31.1139 20.4182 31.0961C20.4212 31.0869 20.4248 31.078 20.4275 31.0687C20.4355 31.0413 20.4425 31.0133 20.4481 30.9847L22.8211 18.7137H27.1539L32.6014 46.884L24.9874 54.3072L17.3733 46.884L19.3869 36.7209C19.3986 36.6602 19.404 36.5998 19.4034 36.5404C19.3994 36.1241 19.1051 35.754 18.6826 35.6716C18.1998 35.5775 17.7325 35.8943 17.6386 36.3795L15.5329 47.0185C15.4755 47.3153 15.5712 47.6211 15.7869 47.8316L24.3672 56.1969C24.5399 56.3652 24.7635 56.4494 24.9873 56.4494C25.211 56.4494 25.4347 56.3652 25.6074 56.1969L34.1877 47.8316C34.4036 47.6211 34.4991 47.3153 34.4417 47.0185L28.844 18.0721L30.7555 15.8244L31.4957 16.5845C31.5182 16.6077 31.5423 16.6294 31.567 16.6497C31.5749 16.6562 31.5833 16.6619 31.5915 16.6683C31.6086 16.6814 31.6258 16.6943 31.6438 16.7063C31.6541 16.7131 31.6648 16.7191 31.6754 16.7256C31.6919 16.7355 31.7085 16.7451 31.7257 16.7539C31.7374 16.76 31.7493 16.7656 31.7615 16.7711C31.7781 16.7787 31.7948 16.7859 31.812 16.7925C31.8247 16.7975 31.8375 16.8022 31.8505 16.8066C31.8675 16.8123 31.8847 16.8173 31.9021 16.8219C31.9154 16.8255 31.9285 16.8292 31.942 16.8321C31.9599 16.836 31.9781 16.8389 31.9962 16.8417C32.0094 16.8438 32.0223 16.8463 32.0357 16.8477C32.057 16.8501 32.0786 16.8509 32.1002 16.8517C32.1103 16.8521 32.1202 16.8533 32.1303 16.8533L32.1324 16.8534C32.1643 16.8534 32.1966 16.8516 32.2286 16.8482C32.5002 16.8186 32.7431 16.6654 32.8878 16.4325L38.657 7.14856L48.1943 11.057V44.8929C48.1943 45.3872 48.5931 45.7879 49.0848 45.7879C49.5765 45.7879 49.9753 45.3871 49.9753 44.8929V10.455C49.9758 10.0912 49.7567 9.76358 49.4216 9.62621ZM33.4893 1.79009L24.988 7.54125L16.4866 1.79009H33.4893ZM17.9983 14.5184L12.5778 5.7956L13.9863 2.25641L23.4599 8.9097L17.9983 14.5184ZM27.478 16.9231H22.4977L20.4703 14.5391L24.9879 9.89976L29.5055 14.5391L27.478 16.9231ZM31.9775 14.5184L26.3725 8.76244L35.9896 2.25641L37.398 5.79572L31.9775 14.5184Z"/>
<path d="M49.0853 49.9208C48.5934 49.9208 48.1947 50.3216 48.1947 50.8158V59.21H1.78118V25.8704C1.78118 25.3761 1.38238 24.2405 0.890645 24.2405C0.398908 24.9754 0.000112078 25.3762 0.000112078 25.8704V60.105C0.000112078 60.5993 0.398908 61 0.890645 61H49.0854C49.5772 61 49.9759 60.5992 49.9759 60.105V50.8158C49.9758 50.3215 49.5771 49.9208 49.0853 49.9208Z"/>
</svg>
