<svg width="166" height="66" viewBox="0 0 166 66" fill="none" xmlns="http://www.w3.org/2000/svg">
<path fill-rule="evenodd" clip-rule="evenodd" d="M0.772778 6.61463C2.68632 3.56074 7.21259 1.94181 12.9532 0.911579C18.1419 0.322876 22.7049 -0.118651 28.1144 0.0285248V19.6029L0.772778 6.61463ZM24.6553 43.0406L24.3977 52.7174C16.8171 45.8369 11.1133 37.7791 8.27976 27.1088L24.2873 34.1365V26.4465L0 14.8933C1.80315 44.9907 14.1676 54.5203 28.1144 65.9632V43.0406H24.6553ZM84.2328 16.2546H72.8619V33.8789H76.5418V19.3453H84.196V16.2546H84.2328ZM96.4132 33.8421H100.13L91.4454 15.6659H91.2982L82.6136 33.8421H86.3303L87.7287 30.7882H94.9781L96.4132 33.8421ZM91.3718 22.5832L93.8741 28.1023H88.8694L91.3718 22.5832ZM105.723 27.5872H108.446C112.384 27.5872 115.217 25.8946 115.217 21.8105C115.217 17.7264 112.384 16.2178 108.446 16.2178H102.043V33.8421H105.723V27.5872ZM105.723 24.5701V19.3085H107.49C110.066 19.3085 111.538 19.6765 111.538 21.8473C111.538 24.0182 110.36 24.5701 107.49 24.5701H105.723ZM128.244 33.8421H131.961L123.276 15.7027H123.129L114.445 33.8789H118.125L119.523 30.825H126.772L128.244 33.8421ZM123.166 22.5832L125.668 28.1023H120.664L123.166 22.5832ZM137.518 26.4098H145.466V33.8789H149.109V16.2546H145.466V23.4294H137.518V16.2546H133.838V33.8789H137.518V26.4098ZM166 16.2546H151.575V19.3821H156.947V33.8789H160.627V19.3453H166V16.2546Z" fill="#002B5B"/>
<path d="M12.1804 0.851714C14.0204 0.667744 15.7867 0.446981 17.5163 0.299805C15.7499 0.483775 14.0204 0.667744 12.1804 0.851714ZM27.5256 19.6534L55.4192 7.65859C53.9472 3.90561 49.0898 1.99232 42.7236 0.888508C37.4981 0.299805 32.8982 -0.141722 27.452 0.0422477C27.4152 0.0422477 27.3784 0.0422477 27.3416 0.0422477V19.6166L27.5256 19.6534ZM31.3527 26.4971V33.9294L47.029 27.049C44.1955 37.7192 38.5285 45.7403 30.9111 52.6575L30.6535 42.9807H27.3416V65.9033C27.3784 65.9033 27.3784 65.9401 27.4152 65.9401H27.5256C41.2884 54.6444 53.5056 45.262 55.6032 16.0476L31.3527 26.4971ZM-3.50942e-08 6.55477C1.54556 4.12637 4.71026 2.61782 8.83174 1.58759C4.71026 2.61782 1.54556 4.12637 -3.50942e-08 6.55477ZM77.3882 45.4459H78.8969C79.1545 47.6904 80.7369 49.1989 83.0552 49.1989C85.5575 49.1989 87.2135 47.396 87.2135 44.7836C87.2135 42.1713 85.5207 40.3684 83.0552 40.3684C80.8105 40.3684 79.1913 41.8401 78.9337 44.011H77.425V40.5523H75.6586V49.0149H77.425V45.4459H77.3882ZM80.6265 44.7836C80.6265 42.8704 81.62 41.8769 83.0552 41.8769C84.5272 41.8769 85.4471 42.9807 85.4471 44.7836C85.4471 46.5497 84.5272 47.6904 83.0552 47.6904C81.62 47.6904 80.6265 46.6969 80.6265 44.7836ZM90.0102 43.0175H88.5014V51.3697H90.1574V48.1687C90.6358 49.0517 91.4086 49.1989 92.0341 49.1989C93.6533 49.1989 94.7205 48.0583 94.7205 46.0346C94.7205 44.011 93.6533 42.8704 92.0341 42.8704C91.2982 42.8704 90.5254 43.2015 90.047 44.011V43.0175H90.0102ZM90.1206 45.9978C90.1206 44.8204 90.6726 44.1581 91.5925 44.1581C92.6229 44.1581 93.0645 45.0044 93.0645 45.9978C93.0645 46.9913 92.6597 47.8375 91.5925 47.8375C90.6726 47.8375 90.1206 47.1752 90.1206 45.9978ZM97.6644 46.2922V43.0175H96.0084V49.2725H96.082L100.056 45.7403V49.0149H101.712V42.76H101.639L97.6644 46.2922ZM102.779 47.6904V50.781H104.362V49.0149H108.336V50.781H109.918V47.6904H109.109V43.0175H104.325C104.325 42.7232 104.362 45.262 104.141 46.2554C103.957 47.1384 103.479 47.6904 103 47.6904H102.779ZM107.453 44.3789V47.6904H105.024C105.539 47.2488 105.76 46.1818 105.797 45.3723C105.834 44.9308 105.797 44.8572 105.834 44.3789H107.453V44.3789ZM112.752 46.2922V43.0175H111.096V49.2725H111.17L115.144 45.7403V49.0149H116.8V42.76H116.726L112.752 46.2922ZM121.878 45.4827C121.547 45.7403 121.179 45.9242 120.737 45.9242C119.928 45.9242 119.744 45.5195 119.744 44.3789V43.0175H118.088V44.9308C118.088 47.0281 119.633 47.212 120.333 47.212C120.995 47.212 121.547 46.9545 121.878 46.6601V48.9781H123.534V43.0175H121.878V45.4827ZM124.822 46.0346C124.822 47.9111 125.889 49.2357 128.023 49.2357C129.054 49.2357 130.047 48.9046 130.673 48.0951L129.753 47.1752C129.275 47.7639 128.612 47.9111 128.06 47.9111C127.398 47.9111 126.515 47.5064 126.478 46.6233H130.783V45.9978C130.783 43.9742 129.716 42.9071 127.84 42.9071C126.257 42.8336 124.822 44.011 124.822 46.0346ZM127.876 44.1581C128.723 44.1581 129.091 44.5997 129.164 45.4091H126.515C126.625 44.5629 127.214 44.1581 127.876 44.1581ZM133.433 46.0346C133.433 45.0412 134.022 44.1581 135.015 44.1581C135.751 44.1581 136.266 44.4525 136.561 44.894L137.628 44.011C137.076 43.2751 136.193 42.8336 135.015 42.8336C133.028 42.8336 131.814 44.1581 131.814 46.0714C131.814 47.9847 133.028 49.1989 135.015 49.1989C136.193 49.1989 137.113 48.7574 137.628 48.0215L136.524 47.1384C136.23 47.58 135.714 47.8743 135.015 47.8743C134.022 47.8743 133.433 46.9913 133.433 46.0346ZM140.572 43.0175H138.916V48.9781H140.572V46.0714L142.817 48.9781H144.914L142.265 45.8875V45.8139L144.767 43.0175H142.817L140.572 45.7771V43.0175ZM147.453 46.2922V43.0175H145.797V49.2725H145.871L149.845 45.7403V49.0149H151.501V42.76H151.428L147.453 46.2922ZM154.703 46.2922V43.0175H153.047V49.2725H153.12L157.095 45.7403V49.0149H158.751V42.76H158.677L154.703 46.2922ZM156.653 40.3684C156.653 40.8467 156.469 41.2514 155.991 41.2514C155.512 41.2514 155.328 40.8467 155.328 40.3684H153.967C153.967 41.4722 154.372 42.3552 155.954 42.3552C157.536 42.3552 157.978 41.4722 157.978 40.3684H156.653ZM101.933 58.5814V53.9453H100.277V59.9059H105.245V61.672H106.827V58.5814H105.871V53.9453H104.215V58.5814H101.933ZM107.526 56.9256C107.526 58.8021 108.594 60.1267 110.728 60.1267C111.758 60.1267 112.752 59.7955 113.378 58.9861L112.458 58.0662C111.979 58.6549 111.317 58.8021 110.765 58.8021C110.102 58.8021 109.219 58.3974 109.182 57.5143H113.488V56.8888C113.488 54.8652 112.421 53.7981 110.544 53.7981C108.925 53.7246 107.526 54.902 107.526 56.9256ZM110.581 55.0491C111.427 55.0491 111.795 55.4907 111.869 56.3001H109.219C109.293 55.4539 109.882 55.0491 110.581 55.0491ZM116.395 57.5143H118.75V59.9059H120.406V53.9453H118.75V56.1897H116.395V53.9453H114.739V59.9059H116.395V57.5143ZM123.424 55.2699V59.9059H125.08V55.2699H126.956V53.9453H121.547V55.2699H123.424ZM129.643 53.9453H128.134V62.2975H129.79V59.0597C130.268 59.9427 131.041 60.0899 131.667 60.0899C133.286 60.0899 134.353 58.9493 134.353 56.9256C134.353 54.902 133.286 53.7613 131.667 53.7613C130.931 53.7613 130.158 54.0925 129.679 54.902V53.9453H129.643ZM129.716 56.8888C129.716 55.7114 130.268 55.0491 131.188 55.0491C132.219 55.0491 132.66 55.8954 132.66 56.8888C132.66 57.8823 132.255 58.7285 131.188 58.7285C130.268 58.7653 129.716 58.0662 129.716 56.8888Z" transform="translate(0.772705 0.0598755)" fill="#C19B48"/>
</svg>
