<svg width="77" height="68" viewBox="0 0 77 68" fill="none" xmlns="http://www.w3.org/2000/svg">
<path d="M6.94784 48.9115H2.26459V57.7041H0V47.0186H6.94784V48.9115ZM13.5414 55.857H9.08919L8.22649 57.7041H5.96189L11.2922 46.6828H11.3846L16.6995 57.7041H14.4195L13.5414 55.857ZM9.79784 54.2084H12.8481L11.323 50.8654L9.79784 54.2084ZM20.1195 57.7041H17.8549V47.0186H21.7678C24.1711 47.0186 25.9119 47.9345 25.9119 50.4074C25.9119 52.8804 24.1711 53.9031 21.7678 53.9031H20.1041V57.7041H20.1195ZM21.1978 52.0713C22.9387 52.0713 23.6781 51.7202 23.6781 50.4074C23.6781 49.0947 22.7846 48.8809 21.1978 48.8809H20.1195V52.0713H21.1978ZM33.0138 55.857H28.5616L27.6989 57.7194H25.4189L30.7492 46.6981H30.8416L36.1565 57.7194H33.8919L33.0138 55.857ZM29.2549 54.2084H32.3051L30.78 50.8654L29.2549 54.2084ZM39.5765 57.7041H37.3119V47.0186H39.5765V51.3691H44.4446V47.0186H46.6784V57.7041H44.4446V53.1857H39.5765V57.7041ZM57 48.9115H53.7187V57.7041H51.4541V48.9115H48.1727V47.0186H57V48.9115ZM27.8992 11.8787V0.0178215C24.6024 -0.0737683 21.8141 0.201001 18.6251 0.53683C15.1281 1.14743 12.3551 2.13965 11.1843 4.00198L27.8992 11.8787ZM25.8041 26.0904L25.6346 31.9674C20.9822 27.7848 17.5159 22.9 15.7751 16.4429L25.573 20.7018V16.0308L10.7068 9.02414C11.8159 27.281 19.38 33.0664 27.8992 39.9967V26.0904H25.8041Z" transform="translate(11.0004 0.0015564)" fill="#000D41"/>
<path d="M38.3996 11.8794V0.0185418C38.415 0.0185418 38.4459 0.0185418 38.4613 0.0185418C41.7888 -0.073048 44.5926 0.186456 47.7969 0.53755C51.6791 1.20921 54.6677 2.36934 55.5613 4.64382L38.5075 11.9405L38.3996 11.8794ZM21.6848 4.0027C22.378 2.91888 23.6104 2.12511 25.228 1.52977C23.6104 2.12511 22.3626 2.91888 21.6848 4.0027ZM40.8645 16.1078V20.611L50.4467 16.4284C48.7212 22.9007 45.2396 27.7702 40.5872 31.9528L40.4177 26.0758H38.3842V39.9975C38.3996 40.0127 38.415 40.0127 38.415 40.028H38.4767C46.9188 33.174 54.4058 27.4802 55.6845 9.77285L40.8645 16.1078ZM1.06297 64.0835H1.9873C2.14135 65.4421 3.11189 66.3733 4.52919 66.3733C6.05432 66.3733 7.08649 65.2742 7.08649 63.6866C7.08649 62.0991 6.05432 61 4.52919 61C3.1427 61 2.17216 61.8854 2.0027 63.2134H1.07838V61.1221H0V66.2511H1.07838V64.0835H1.06297ZM3.03486 63.6866C3.03486 62.5265 3.65108 61.9312 4.52919 61.9312C5.4227 61.9312 5.9773 62.6028 5.9773 63.6866C5.9773 64.7704 5.4073 65.4421 4.52919 65.4421C3.65108 65.4421 3.03486 64.8468 3.03486 63.6866ZM8.79649 62.6181H7.87216V67.7013H8.87351V65.7321C9.16622 66.2664 9.64378 66.358 10.0135 66.358C10.9995 66.358 11.6619 65.6558 11.6619 64.4346C11.6619 63.2134 11.0149 62.5112 10.0135 62.5112C9.56676 62.5112 9.08919 62.7097 8.78108 63.2134V62.6181H8.79649ZM8.8427 64.4193C8.8427 63.7172 9.18162 63.305 9.75162 63.305C10.3832 63.305 10.6451 63.824 10.6451 64.4193C10.6451 65.0147 10.3832 65.5337 9.75162 65.5337C9.19703 65.549 8.8427 65.1368 8.8427 64.4193ZM13.4797 64.6025V62.6181H12.4784V66.4038H12.5246L14.9586 64.2667V66.2511H15.96V62.4654H15.9138L13.4797 64.6025ZM16.5916 65.4421V67.3197H17.5776V66.2359H20.0116V67.3044H20.9976V65.4268H20.4892V62.6181H17.5622C17.5468 62.4349 17.593 63.9767 17.4543 64.572C17.3311 65.1063 17.0384 65.4421 16.7611 65.4421H16.5916ZM19.4724 63.4271V65.4268H17.9781C18.3016 65.1521 18.4249 64.5109 18.4557 64.0225C18.4711 63.763 18.4711 63.7172 18.4711 63.4271H19.4724ZM22.7076 64.6025V62.6181H21.7062V66.4038H21.7524L24.1865 64.2667V66.2511H25.1878V62.4654H25.1416L22.7076 64.6025ZM28.3151 64.1141C28.1149 64.2667 27.8838 64.3736 27.6065 64.3736C27.1135 64.3736 26.9903 64.1446 26.9903 63.4424V62.6181H25.9889V63.7782C25.9889 65.0605 26.9286 65.1673 27.36 65.1673C27.7605 65.1673 28.0995 65.0147 28.3151 64.8315V66.2359H29.3165V62.6028H28.3151V64.1141ZM30.1022 64.4346C30.1022 65.5795 30.7492 66.3733 32.0741 66.3733C32.7057 66.3733 33.3065 66.1748 33.6916 65.6711L33.1062 65.1063C32.7981 65.4574 32.413 65.549 32.0586 65.549C31.6427 65.549 31.1189 65.3047 31.1035 64.7552H33.7378V64.3736C33.7378 63.1524 33.0908 62.496 31.9354 62.496C30.9803 62.496 30.1022 63.2134 30.1022 64.4346ZM31.9816 63.305C32.49 63.305 32.7365 63.5798 32.7827 64.0683H31.1497C31.2113 63.5493 31.5657 63.305 31.9816 63.305ZM35.3862 64.4346C35.3862 63.824 35.7405 63.305 36.3414 63.305C36.7881 63.305 37.1116 63.4729 37.2811 63.7477L37.9435 63.2134C37.6046 62.7707 37.0654 62.496 36.3414 62.496C35.1089 62.496 34.3695 63.305 34.3695 64.4499C34.3695 65.5948 35.1089 66.358 36.3414 66.358C37.0654 66.358 37.62 66.0832 37.9435 65.6405L37.2811 65.1063C37.1116 65.381 36.7881 65.549 36.3568 65.549C35.7251 65.549 35.3862 65.03 35.3862 64.4346ZM39.7459 62.6181H38.7446V66.2511H39.7459V64.4804L41.1324 66.2511H42.4111L40.7781 64.3736V64.3278L42.3186 62.6181H41.1324L39.7614 64.282V62.6181H39.7459ZM43.9516 64.6025V62.6181H42.9503V66.4038H42.9965L45.4305 64.2667V66.2511H46.4319V62.4654H46.3857L43.9516 64.6025ZM48.3884 64.6025V62.6181H47.387V66.4038H47.4332L49.8673 64.2667V66.2511H50.8686V62.4654H50.8224L48.3884 64.6025ZM49.59 61.0153C49.59 61.3053 49.4822 61.5495 49.1895 61.5495C48.8968 61.5495 48.7889 61.3053 48.7889 61.0153H47.957C47.957 61.6869 48.2035 62.2059 49.174 62.2059C50.1446 62.2059 50.4219 61.6717 50.4219 61.0153H49.59ZM55.8292 65.5642V62.7402H54.8278V66.3733H57.8627V67.4418H58.8486V65.5642H58.2478V62.7402H57.2465V65.549H55.8292V65.5642ZM59.2338 64.5567C59.2338 65.7016 59.8808 66.4954 61.2057 66.4954C61.8373 66.4954 62.4381 66.2969 62.8232 65.7932L62.2532 65.2284C61.9451 65.5795 61.56 65.6711 61.2057 65.6711C60.7897 65.6711 60.2659 65.4268 60.2505 64.8773H62.8848V64.4957C62.8848 63.2745 62.2378 62.6181 61.0824 62.6181C60.0965 62.6181 59.2338 63.3355 59.2338 64.5567ZM61.0978 63.4271C61.6062 63.4271 61.8527 63.7019 61.8989 64.1904H60.2659C60.3275 63.6714 60.6973 63.4271 61.0978 63.4271ZM64.6719 64.9078H66.1046V66.3733H67.1059V62.7402H66.1046V64.0988H64.6719V62.7402H63.6705V66.3733H64.6719V64.9078ZM68.9854 63.5492V66.358H69.9867V63.5492H71.1421V62.7402H67.83V63.5492H68.9854ZM72.7751 62.7402H71.8508V67.8234H72.8521V65.8543C73.1448 66.3885 73.6224 66.4801 73.9921 66.4801C74.9781 66.4801 75.6405 65.7779 75.6405 64.5567C75.6405 63.3355 74.9935 62.6334 73.9921 62.6334C73.5454 62.6334 73.0678 62.8318 72.7597 63.3355V62.7402H72.7751ZM72.8213 64.5415C72.8213 63.8393 73.1603 63.4271 73.7303 63.4271C74.3619 63.4271 74.6238 63.9461 74.6238 64.5415C74.6238 65.1368 74.3619 65.6558 73.7303 65.6558C73.1603 65.6711 72.8213 65.2589 72.8213 64.5415Z" transform="translate(0.5)" fill="#C19B48"/>
</svg>
