<svg width="411" height="482" viewBox="0 0 411 482" xmlns="http://www.w3.org/2000/svg">
<path d="M204.949 143.047V0.22315C165.649 -0.879734 132.409 2.42892 94.3941 6.65664C52.7064 14.0092 19.6501 25.9571 5.69303 48.3824L204.949 143.047ZM179.973 314.178L177.953 384.946C122.676 334.581 81.1716 275.76 60.6032 197.823L177.402 249.107V193.044L0 108.673C13.2225 328.699 103.393 398.181 204.949 481.632V314.178H179.973Z"/>
<path d="M204.949 143.047V0.22315C205.133 0.22315 205.5 0.223272 205.684 0.223272C245.351 -0.879612 278.775 2.24523 316.973 6.47295C363.252 14.5608 398.879 28.5306 409.531 55.9189L206.418 143.782L204.949 143.047ZM234.332 193.963V248.188L348.56 197.823C327.992 275.761 286.488 334.397 231.027 384.762L229.007 313.994H204.765V481.632C204.949 481.816 205.133 481.816 205.133 482H205.867C306.689 399.467 395.941 330.905 411 117.68L234.332 193.963Z"/>
</svg>