<svg width="107" height="42" viewBox="0 0 107 42" xmlns="http://www.w3.org/2000/svg">
<path fill-rule="evenodd" clip-rule="evenodd" d="M0.498116 4.20931C1.73154 2.26593 4.64908 1.2357 8.34937 0.580095C11.6939 0.205467 14.6351 -0.0755051 18.1219 0.0181522V12.4746L0.498116 4.20931ZM15.8923 27.3895L15.7262 33.5474C10.8399 29.169 7.16338 24.0412 5.33695 17.2511L15.6551 21.7232V16.8296L0 9.47753C1.16227 28.6304 9.13212 34.6947 18.1219 41.9766V27.3895H15.8923ZM54.2946 10.3439H46.9652V21.5593H49.3372V12.3107H54.2709V10.3439H54.2946ZM62.1459 21.5359H64.5416L58.9437 9.96923H58.8488L53.2509 21.5359H55.6466L56.548 19.5925H61.2208L62.1459 21.5359ZM58.8963 14.3711L60.5092 17.8833H57.2833L58.8963 14.3711ZM68.147 17.5555H69.9022C72.4403 17.5555 74.2667 16.4784 74.2667 13.8794C74.2667 11.2804 72.4403 10.3204 69.9022 10.3204H65.775V21.5359H68.147V17.5555ZM68.147 15.6355V12.2872H69.2855C70.9459 12.2872 71.8947 12.5214 71.8947 13.9028C71.8947 15.2843 71.1357 15.6355 69.2855 15.6355H68.147ZM82.6635 21.5359H85.0592L79.4613 9.99265H79.3664L73.7686 21.5593H76.1405L77.0419 19.6159H81.7147L82.6635 21.5359ZM79.3902 14.3711L81.0031 17.8833H77.7772L79.3902 14.3711ZM88.6409 16.8062H93.7643V21.5593H96.1126V10.3439H93.7643V14.9096H88.6409V10.3439H86.2689V21.5593H88.6409V16.8062ZM107 10.3439H97.7018V12.3341H101.165V21.5593H103.537V12.3107H107V10.3439Z"/>
<path d="M8.34937 0.580095C9.53536 0.463024 10.6738 0.322528 11.7887 0.228871C10.6501 0.345942 9.53536 0.463024 8.34937 0.580095ZM18.2405 12.5448L36.2201 4.91173C35.2713 2.52347 32.1403 1.30593 28.0367 0.6035C24.6685 0.228871 21.7035 -0.0521007 18.193 0.0649708C18.1693 0.0649708 18.1456 0.0649708 18.1219 0.0649708V12.5214L18.2405 12.5448ZM20.7073 16.8999V21.6295L30.8119 17.2511C28.9855 24.0412 25.3327 29.1455 20.4227 33.5474L20.2566 27.3895L18.1219 27.3895V41.9766C18.1456 41.9766 18.1456 42 18.1693 42H18.2405C27.1117 34.8118 34.9866 28.8412 36.3387 10.2502L20.7073 16.8999ZM50.3808 28.9582H51.3533C51.5193 30.3865 52.5393 31.3465 54.0336 31.3465C55.6466 31.3465 56.714 30.1992 56.714 28.5368C56.714 26.8744 55.6228 25.727 54.0336 25.727C52.5867 25.727 51.543 26.6636 51.377 28.0451H50.4045V25.8441H49.2659V31.2294H50.4045V28.9582H50.3808ZM52.4681 28.5368C52.4681 27.3192 53.1086 26.687 54.0336 26.687C54.9824 26.687 55.5754 27.3895 55.5754 28.5368C55.5754 29.6607 54.9824 30.3865 54.0336 30.3865C53.1086 30.3865 52.4681 29.7543 52.4681 28.5368ZM57.5442 27.4129V32.7279H58.6115V30.6909C58.9199 31.2528 59.418 31.3465 59.8213 31.3465C60.8649 31.3465 61.5528 30.6206 61.5528 29.3328C61.5528 28.0451 60.8649 27.3192 59.8213 27.3192C59.3469 27.3192 58.8487 27.5299 58.5404 28.0451V27.4129H57.5442ZM58.5878 29.3094C58.5878 28.5602 58.9436 28.1387 59.5366 28.1387C60.2008 28.1387 60.4854 28.6773 60.4854 29.3094C60.4854 29.9416 60.2245 30.4802 59.5366 30.4802C58.9436 30.4802 58.5878 30.0587 58.5878 29.3094ZM63.4504 29.4968V27.4129H62.383V31.3933H62.4304L64.9922 29.1455V31.2294H66.0596V27.249H66.0121L63.4504 29.4968ZM66.7474 30.3865V32.3533H67.7674V31.2294H70.3291V32.3533H71.3491V30.3865H70.8272V27.4129H67.7437C67.7437 27.2256 67.7674 28.8412 67.6251 29.4733C67.5065 30.0353 67.1981 30.3865 66.8898 30.3865H66.7474ZM69.7598 28.2792V30.3865H68.1943C68.5264 30.1055 68.6687 29.4265 68.6925 28.9114C68.7162 28.6304 68.6925 28.5836 68.7162 28.2792H69.7598ZM73.1755 29.4968V27.4129H72.1081V31.3933H72.1555L74.7173 29.1455V31.2294H75.7847V27.249H75.7372L73.1755 29.4968ZM79.058 28.9816C78.8445 29.1455 78.6073 29.2626 78.3227 29.2626C77.8009 29.2626 77.6823 29.0051 77.6823 28.2792V27.4129H76.6149V28.6304C76.6149 29.965 77.6111 30.0821 78.0618 30.0821C78.4887 30.0821 78.8445 29.9182 79.058 29.7309V31.206H80.1254V27.4129H79.058V28.9816ZM80.9556 29.3328C80.9556 30.527 81.6435 31.3699 83.0192 31.3699C83.6834 31.3699 84.3238 31.1592 84.727 30.6441L84.134 30.0587C83.8257 30.4333 83.3987 30.527 83.0429 30.527C82.616 30.527 82.0467 30.2694 82.023 29.7075H84.7982V29.3094C84.7982 28.0217 84.1103 27.3426 82.9006 27.3426C81.8807 27.2958 80.9556 28.0451 80.9556 29.3328ZM82.9243 28.1387C83.4699 28.1387 83.7071 28.4197 83.7545 28.9348H82.0467C82.1179 28.3963 82.4974 28.1387 82.9243 28.1387ZM86.506 29.3328C86.506 28.7007 86.8855 28.1387 87.526 28.1387C88.0004 28.1387 88.3325 28.326 88.5222 28.607L89.2101 28.0451C88.8543 27.5768 88.285 27.2958 87.526 27.2958C86.2451 27.2958 85.4623 28.1387 85.4623 29.3563C85.4623 30.5738 86.2451 31.3465 87.526 31.3465C88.285 31.3465 88.878 31.0655 89.2101 30.5972L88.4985 30.0353C88.3087 30.3162 87.9766 30.5036 87.526 30.5036C86.8855 30.5036 86.506 29.9416 86.506 29.3328ZM91.1077 27.4129H90.0403V31.206H91.1077V29.3563L92.5546 31.206H93.9066L92.1988 29.2392V29.1924L93.8117 27.4129H92.5546L91.1077 29.169V27.4129ZM95.5433 29.4968V27.4129H94.4759V31.3933H94.5233L97.085 29.1455V31.2294H98.1524V27.249H98.105L95.5433 29.4968ZM100.216 29.4968V27.4129H99.1487V31.3933H99.1961L101.758 29.1455V31.2294H102.825V27.249H102.778L100.216 29.4968ZM101.473 25.727C101.473 26.0314 101.355 26.289 101.046 26.289C100.738 26.289 100.619 26.0314 100.619 25.727H99.7417C99.7417 26.4295 100.003 26.9914 101.023 26.9914C102.042 26.9914 102.327 26.4295 102.327 25.727H101.473ZM66.2019 37.3171V34.3669H65.1345V38.16H68.3367V39.2839H69.3566V37.3171H68.7399V34.3669H67.6725V37.3171H66.2019ZM69.8073 36.2635C69.8073 37.4576 70.4952 38.3005 71.8709 38.3005C72.5351 38.3005 73.1755 38.0898 73.5787 37.5747L72.9857 36.9893C72.6774 37.364 72.2504 37.4576 71.8946 37.4576C71.4677 37.4576 70.8984 37.2001 70.8747 36.6381H73.6499V36.2401C73.6499 34.9523 72.962 34.2733 71.7523 34.2733C70.7086 34.2264 69.8073 34.9757 69.8073 36.2635ZM71.776 35.0694C72.3216 35.0694 72.5588 35.3503 72.6062 35.8654H70.8984C70.9458 35.3269 71.3254 35.0694 71.776 35.0694ZM75.5238 36.6381H77.0418V38.16H78.1092V34.3669H77.0418V35.7952H75.5238V34.3669H74.4564V38.16H75.5238V36.6381ZM80.0542 35.2098V38.16H81.1216V35.2098H82.3313V34.3669H78.8445V35.2098H80.0542ZM83.0904 34.3669V39.682H84.1578V37.6215C84.4661 38.1835 84.9642 38.2771 85.3675 38.2771C86.4111 38.2771 87.099 37.5513 87.099 36.2635C87.099 34.9757 86.4111 34.2499 85.3675 34.2499C84.8931 34.2499 84.395 34.4606 84.0866 34.9757V34.3669H83.0904ZM84.1103 36.2401C84.1103 35.4908 84.4661 35.0694 85.0591 35.0694C85.7233 35.0694 86.0079 35.6079 86.0079 36.2401C86.0079 36.8723 85.747 37.4108 85.0591 37.4108C84.4661 37.4342 84.1103 36.9893 84.1103 36.2401Z"/>
</svg>
