<svg width="24" height="25" viewBox="0 0 24 25" xmlns="http://www.w3.org/2000/svg">
<path d="M21 3.26201L10.4054 0L0 3.26201C0 3.26201 0 10.6772 1.32432 14.67C2.24323 17.4405 5.67568 21.5283 10.4054 24C15.2487 21.4142 18.4775 17.2685 19.4865 14.67C20.6881 11.5756 21 3.26201 21 3.26201Z" transform="translate(2 1)" fill="#FFD780"/>
<path d="M23.9976 19.3384C23.9642 18.4101 23.5774 17.5437 22.9088 16.899C21.5995 15.6365 20.5025 14.9077 19.4566 14.6054C18.0154 14.1889 16.6804 14.5676 15.489 15.7312C15.4872 15.7329 15.4855 15.7347 15.4837 15.7365L14.2162 16.9945C13.424 16.548 11.8837 15.5675 10.2196 13.9034L10.0962 13.7801C8.43177 12.1157 7.45138 10.5751 7.00527 9.78382L8.26339 8.51627C8.26517 8.51449 8.26695 8.5127 8.26873 8.51088C9.43222 7.31959 9.81097 5.98468 9.39448 4.54331C9.09219 3.49738 8.36342 2.40041 7.10089 1.09114C6.45617 0.422557 5.58988 0.0358359 4.66152 0.00236703C3.7326 -0.0311488 2.84122 0.292197 2.14991 0.912731L2.123 0.936918C2.11054 0.948122 2.09835 0.9597 2.08644 0.971559C0.71024 2.34777 -0.0111662 4.27439 0.000130668 6.5432C0.0193963 10.3974 2.13763 14.805 5.66633 18.3336C6.33172 18.999 7.08795 19.6575 7.91399 20.2909C8.32484 20.6059 8.91331 20.5283 9.22836 20.1174C9.54345 19.7065 9.46573 19.118 9.05483 18.8029C8.29381 18.2194 7.59983 17.6155 6.99214 17.0079C3.80483 13.8206 1.89191 9.90509 1.87508 6.53387C1.86641 4.78655 2.39202 3.32812 3.39528 2.31439L3.40246 2.30793C4.08388 1.69625 5.11555 1.73347 5.75127 2.39268C8.17841 4.90978 8.00267 6.09812 6.93017 7.1979L5.19233 8.94879C4.9198 9.22338 4.84391 9.6372 5.00127 9.99063C5.04538 10.0897 6.11267 12.4482 8.77072 15.1062L8.89414 15.2295C11.5519 17.8872 13.9103 18.9545 14.0094 18.9986C14.3628 19.1561 14.7767 19.0801 15.0512 18.8076L16.8021 17.0697C17.9021 15.9971 19.0904 15.8215 21.6073 18.2486C22.2665 18.8843 22.3038 19.916 21.6922 20.5973L21.6856 20.6047C20.6801 21.5998 19.2372 22.125 17.509 22.125C17.4947 22.125 17.4805 22.125 17.4662 22.1249C16.0847 22.118 14.485 21.7393 12.8401 21.0298C12.3648 20.8247 11.813 21.0439 11.608 21.5193C11.4029 21.9948 11.6221 22.5464 12.0975 22.7515C13.9989 23.5716 15.802 23.9916 17.4568 23.9999C17.4744 24 17.4919 24 17.5094 24C19.7554 24 21.6629 23.2791 23.0284 21.9136C23.0403 21.9017 23.0518 21.8895 23.063 21.877L23.0874 21.85C23.7079 21.1587 24.0311 20.2668 23.9976 19.3384Z"/>
</svg>
