<svg width="53" height="8" viewBox="0 0 53 8" xmlns="http://www.w3.org/2000/svg">
<path fill-rule="evenodd" clip-rule="evenodd" d="M49.1716 0.146447L51.7071 2.68201H50.2929L48.4645 0.853553C48.2692 0.658291 48.2692 0.341709 48.4645 0.146447C48.6597 -0.0488155 48.9763 -0.0488155 49.1716 0.146447ZM50.5 3.18201H52.2071L52.3536 3.32843C52.5488 3.52369 52.5488 3.84027 52.3536 4.03553L52.2071 4.18201L50.7929 4.18198L50.5 4.18201L0.5 4.18198C0.223857 4.18198 0 3.95812 0 3.68198C0 3.40584 0.223858 3.18198 0.5 3.18198L50.5 3.18201ZM50.2929 4.68195L48.4645 6.51041C48.2692 6.70567 48.2692 7.02225 48.4645 7.21751C48.6597 7.41278 48.9763 7.41278 49.1716 7.21751L51.7071 4.68195L50.2929 4.68195Z" transform="translate(52.5 0.317993) scale(-1 1)"/>
</svg>
