<svg width="46" height="51" viewBox="0 0 46 51" fill="none" xmlns="http://www.w3.org/2000/svg">
<path d="M42.623 6.57303L21.1195 0L0 6.57303C0 6.57303 0 21.5148 2.68793 29.5605C4.55301 35.1431 11.5197 43.38 21.1195 48.3607C30.9496 43.1502 37.5031 34.7965 39.551 29.5605C41.9899 23.3251 42.623 6.57303 42.623 6.57303Z" transform="translate(2.63916 2.63916)" fill="#F4E6C5"/>
<path fill-rule="evenodd" clip-rule="evenodd" d="M21.6182 0L43.6372 6.73061L43.6226 7.11516L43.123 7.09627C43.6226 7.11516 43.6227 7.115 43.6226 7.11516L43.6225 7.11847L43.6222 7.12784L43.6207 7.16445L43.6149 7.30697C43.6096 7.43195 43.6016 7.61575 43.5905 7.85171C43.5683 8.32363 43.534 9.00428 43.4851 9.84038C43.3874 11.5123 43.2317 13.8071 42.9994 16.2981C42.5374 21.2536 41.766 27.0717 40.5166 30.2659C38.4212 35.6235 31.7794 44.0645 21.8537 49.3257L21.622 49.4485L21.3892 49.3278C16.5351 46.8093 12.3489 43.4692 9.13877 40.0519C5.93448 36.6408 3.67684 33.1251 2.7137 30.2422C1.34809 26.1545 0.673464 20.3526 0.337242 15.6082C0.168618 13.2288 0.0843326 11.1022 0.042188 9.57039C0.0211121 8.80436 0.0105658 8.18673 0.00528812 7.7602C0.00264919 7.54693 0.00132719 7.38141 0.00066492 7.26899L8.41022e-05 7.14082L1.07586e-05 7.10784L1.78814e-07 7.09713C1.49012e-07 7.09697 0 7.09627 0.5 7.09627L1.78814e-07 7.09713L0 6.72823L21.6182 0ZM1.00216 7.46364C1.00289 7.54559 1.00388 7.64055 1.00521 7.74783C1.01043 8.16986 1.02089 8.78242 1.04181 9.54289C1.08366 11.0641 1.16737 13.1758 1.33474 15.5375C1.6705 20.2754 2.33984 25.9672 3.66216 29.9253C4.5641 32.625 6.72235 36.019 9.86762 39.3672C12.9556 42.6545 16.9701 45.8708 21.617 48.3184C31.2223 43.1511 37.6009 34.9753 39.5853 29.9016C40.7749 26.8604 41.5395 21.1847 42.0037 16.2053C42.2346 13.7289 42.3896 11.446 42.4868 9.78205C42.5354 8.9502 42.5696 8.27339 42.5916 7.80482C42.5977 7.67365 42.6029 7.55881 42.6072 7.46146L21.6208 1.04649L1.00216 7.46364Z" transform="translate(0.5 0.476562)" fill="#C19B48"/>
<path d="M13.5567 0H0.377744C0.169158 0 0 0.163441 0 0.365093V2.09444C0 2.29604 0.169105 2.45953 0.377744 2.45953H1.44961C1.50086 3.96975 1.8693 5.39987 2.52421 6.61563C3.23155 7.92869 4.20488 8.87459 5.33892 9.35116C5.38797 9.37174 5.43906 9.38151 5.48935 9.38151C5.63524 9.38151 5.77412 9.2994 5.83596 9.16192C5.91915 8.97702 5.83147 8.76192 5.64016 8.68152C3.69548 7.86437 2.31445 5.33689 2.2059 2.45953H13.5566C13.7652 2.45953 13.9344 2.29609 13.9344 2.09444V0.365093C13.9344 0.163441 13.7653 0 13.5567 0ZM13.1789 1.72934H0.755488V0.730135H13.179V1.72934H13.1789Z" transform="translate(14.9341 14.9341)" fill="#AB883D"/>
<path d="M13.5567 12.5838H12.4848C12.4336 11.0735 12.0651 9.64342 11.4102 8.42766C10.8417 7.37245 10.1016 6.55437 9.24422 6.0264C9.96124 5.58293 10.6032 4.93138 11.1261 4.11071C11.7946 3.06176 12.2389 1.78179 12.4109 0.409058C12.436 0.208906 12.2885 0.0269538 12.0813 0.00275558C11.8744 -0.0218563 11.686 0.121161 11.661 0.321314C11.3431 2.85814 10.0216 4.96634 8.29432 5.69213C8.1564 5.75009 8.06722 5.88158 8.06722 6.02697C8.06722 6.17237 8.1564 6.3038 8.29432 6.36182C10.239 7.17902 11.6209 9.70639 11.7294 12.5838H3.79788C3.9282 11.4571 5.29933 10.5676 6.96732 10.5676C8.17058 10.5676 9.29295 11.0527 9.82653 11.8034C9.92465 11.9414 10.1198 11.9763 10.2625 11.8816C10.4053 11.7868 10.4415 11.5982 10.3434 11.4602C9.68632 10.5358 8.39265 9.96151 6.96732 9.96151C4.94807 9.96151 3.29174 11.1227 3.16789 12.5839H2.205C2.28481 10.4308 3.06764 8.45305 4.33338 7.23921C4.48146 7.09723 4.48237 6.86605 4.33542 6.72293C4.18857 6.57986 3.94933 6.57883 3.80125 6.72096C2.39705 8.06758 1.53157 10.2388 1.44977 12.5839H0.377744C0.169158 12.5839 0 12.7474 0 12.949V14.6783C0 14.8799 0.169105 15.0434 0.377744 15.0434H13.5567C13.7653 15.0434 13.9344 14.88 13.9344 14.6783V12.949C13.9344 12.7472 13.7653 12.5838 13.5567 12.5838ZM13.1789 14.3132H0.755488V13.3139H1.82051H12.1139H13.1789V14.3132Z" transform="translate(14.9341 17.9238)" fill="#AB883D"/>
<path d="M0.377691 0.730031C0.477142 0.730031 0.57456 0.691252 0.644642 0.623001C0.715204 0.555266 0.755327 0.461162 0.755327 0.364989C0.755327 0.268869 0.715204 0.174713 0.644642 0.106979C0.574507 0.0387792 0.477142 0 0.377691 0C0.278186 0 0.180767 0.0387792 0.110739 0.106979C0.0401233 0.174765 0 0.268869 0 0.364989C0 0.461162 0.0401233 0.555318 0.110739 0.623001C0.180767 0.691252 0.278186 0.730031 0.377691 0.730031Z" transform="translate(21.5234 26.7534)" fill="#AB883D"/>
<path d="M0.377691 0C0.278186 0 0.180767 0.0393476 0.110739 0.10703C0.0401233 0.175282 0 0.269386 0 0.365042C0 0.461214 0.0401233 0.555318 0.110739 0.623569C0.180821 0.691304 0.278186 0.7306 0.377691 0.7306C0.476661 0.7306 0.574025 0.691252 0.644642 0.623569C0.715204 0.555318 0.755327 0.461214 0.755327 0.365042C0.755327 0.269335 0.715204 0.175282 0.644642 0.10703C0.57456 0.0393476 0.477142 0 0.377691 0Z" transform="translate(21.5234 25.1694)" fill="#AB883D"/>
<path d="M0.644642 0.107031C0.574507 0.0387795 0.477142 0 0.377691 0C0.278186 0 0.180767 0.0387795 0.110739 0.107031C0.0401234 0.174765 0 0.268869 0 0.365042C0 0.461162 0.0401234 0.555318 0.110739 0.623052C0.180821 0.691252 0.278186 0.730031 0.377691 0.730031C0.477142 0.730031 0.57456 0.691252 0.644642 0.623052C0.715204 0.555266 0.755327 0.461162 0.755327 0.365042C0.755381 0.268869 0.715258 0.174713 0.644642 0.107031Z" transform="translate(21.5234 23.5854)" fill="#AB883D"/>
<path d="M5.71616 3.04758C6.272 2.38451 6.70869 1.48788 6.97896 0.454544C7.00748 0.345393 6.98233 0.229573 6.91081 0.140794C6.83928 0.0520158 6.72924 0 6.61277 0H0.377725C0.261208 0 0.151271 0.0519641 0.0796916 0.140794C0.00811231 0.229625 -0.0170311 0.345445 0.0115365 0.454544C0.281912 1.48788 0.718556 2.38456 1.27434 3.04758C1.9162 3.81324 2.68421 4.21793 3.49528 4.21793C4.30635 4.21793 5.07435 3.81324 5.71616 3.04758ZM3.49522 3.4878C2.30052 3.4878 1.35737 2.16636 0.878941 0.730134H6.11156C5.63313 2.16641 4.68998 3.4878 3.49522 3.4878Z" transform="translate(18.4062 18.6978)" fill="#AB883D"/>
</svg>
