<svg width="46" height="51" viewBox="0 0 46 51" fill="none" xmlns="http://www.w3.org/2000/svg">
<path d="M42.623 6.57303L21.1195 0L0 6.57303C0 6.57303 0 21.5148 2.68793 29.5605C4.55301 35.1431 11.5197 43.38 21.1195 48.3607C30.9496 43.1502 37.5031 34.7965 39.551 29.5605C41.9899 23.3251 42.623 6.57303 42.623 6.57303Z" transform="translate(2.63916 2.63916)" fill="#F4E6C5"/>
<path fill-rule="evenodd" clip-rule="evenodd" d="M21.6182 0L43.6372 6.73061L43.6226 7.11516L43.123 7.09627C43.6226 7.11516 43.6227 7.115 43.6226 7.11516L43.6225 7.11847L43.6222 7.12784L43.6207 7.16445L43.6149 7.30697C43.6096 7.43195 43.6016 7.61575 43.5905 7.85171C43.5683 8.32363 43.534 9.00428 43.4851 9.84038C43.3874 11.5123 43.2317 13.8071 42.9994 16.2981C42.5374 21.2536 41.766 27.0717 40.5166 30.2659C38.4212 35.6235 31.7794 44.0645 21.8537 49.3257L21.622 49.4485L21.3892 49.3278C16.5351 46.8093 12.3489 43.4692 9.13877 40.0519C5.93448 36.6408 3.67684 33.1251 2.7137 30.2422C1.34809 26.1545 0.673464 20.3526 0.337242 15.6082C0.168618 13.2288 0.0843326 11.1022 0.042188 9.57039C0.0211121 8.80436 0.0105658 8.18673 0.00528812 7.7602C0.00264919 7.54693 0.00132719 7.38141 0.00066492 7.26899L8.41022e-05 7.14082L1.07586e-05 7.10784L1.78814e-07 7.09713C1.49012e-07 7.09697 0 7.09627 0.5 7.09627L1.78814e-07 7.09713L0 6.72823L21.6182 0ZM1.00216 7.46364C1.00289 7.54559 1.00388 7.64055 1.00521 7.74783C1.01043 8.16986 1.02089 8.78242 1.04181 9.54289C1.08366 11.0641 1.16737 13.1758 1.33474 15.5375C1.6705 20.2754 2.33984 25.9672 3.66216 29.9253C4.5641 32.625 6.72235 36.019 9.86762 39.3672C12.9556 42.6545 16.9701 45.8708 21.617 48.3184C31.2223 43.1511 37.6009 34.9753 39.5853 29.9016C40.7749 26.8604 41.5395 21.1847 42.0037 16.2053C42.2346 13.7289 42.3896 11.446 42.4868 9.78205C42.5354 8.9502 42.5696 8.27339 42.5916 7.80482C42.5977 7.67365 42.6029 7.55881 42.6072 7.46146L21.6208 1.04649L1.00216 7.46364Z" transform="translate(0.5 0.476562)" fill="#C19B48"/>
<path fill-rule="evenodd" clip-rule="evenodd" d="M2.36258 0.819672H7.88106C11.4061 0.819672 13.9344 2.23201 13.9344 6.01514C13.9344 9.35021 11.9695 10.98 9.08896 11.3193C8.90759 11.3406 8.7226 11.3569 8.53423 11.3681C8.32071 11.3808 8.10286 11.3871 7.88106 11.3871H4.67695V12.139H8.53423V13.7002H4.67695V17.2131H2.36258V13.7002H0.819672V12.139H2.36258V0.819672ZM1.54291 11.3193V0H7.88106C9.73204 0 11.4545 0.367387 12.7297 1.34928C14.0437 2.36104 14.7541 3.92401 14.7541 6.01514C14.7541 8.10406 14.0461 9.70181 12.746 10.7564C11.8171 11.5098 10.6465 11.9366 9.35391 12.1118V14.5199H5.49662V18.0328H1.54291V14.5199H0V11.3193H1.54291ZM5.49662 4.08575V8.14626H7.1759C8.50407 8.14626 9.42013 8.04948 10.0014 7.74404C10.2632 7.6065 10.4448 7.43139 10.5707 7.19383C10.7023 6.94554 10.8004 6.57641 10.8004 6.01514C10.8004 5.46498 10.6943 5.1232 10.5636 4.90398C10.4378 4.69317 10.2528 4.53399 9.97508 4.40979C9.35594 4.13296 8.42929 4.08575 7.1759 4.08575H5.49662ZM4.67695 3.26608H7.1759C9.60704 3.26608 11.6201 3.40421 11.6201 6.01514C11.6201 8.62607 9.80179 8.96594 7.1759 8.96594H4.67695V3.26608Z" transform="translate(15.7539 14.9341)" fill="#AB883D"/>
</svg>
