<svg width="46" height="51" viewBox="0 0 46 51" fill="none" xmlns="http://www.w3.org/2000/svg">
<path d="M42.623 6.57303L21.1195 0L0 6.57303C0 6.57303 0 21.5148 2.68793 29.5605C4.55301 35.1431 11.5197 43.38 21.1195 48.3607C30.9496 43.1502 37.5031 34.7965 39.551 29.5605C41.9899 23.3251 42.623 6.57303 42.623 6.57303Z" transform="translate(2.63916 2.63916)" fill="#F4E6C5"/>
<path fill-rule="evenodd" clip-rule="evenodd" d="M21.6182 0L43.6372 6.73061L43.6226 7.11516L43.123 7.09627C43.6226 7.11516 43.6227 7.115 43.6226 7.11516L43.6225 7.11847L43.6222 7.12784L43.6207 7.16445L43.6149 7.30697C43.6096 7.43195 43.6016 7.61575 43.5905 7.85171C43.5683 8.32363 43.534 9.00428 43.4851 9.84038C43.3874 11.5123 43.2317 13.8071 42.9994 16.2981C42.5374 21.2536 41.766 27.0717 40.5166 30.2659C38.4212 35.6235 31.7794 44.0645 21.8537 49.3257L21.622 49.4485L21.3892 49.3278C16.5351 46.8093 12.3489 43.4692 9.13877 40.0519C5.93448 36.6408 3.67684 33.1251 2.7137 30.2422C1.34809 26.1545 0.673464 20.3526 0.337242 15.6082C0.168618 13.2288 0.0843326 11.1022 0.042188 9.57039C0.0211121 8.80436 0.0105658 8.18673 0.00528812 7.7602C0.00264919 7.54693 0.00132719 7.38141 0.00066492 7.26899L8.41022e-05 7.14082L1.07586e-05 7.10784L1.78814e-07 7.09713C1.49012e-07 7.09697 0 7.09627 0.5 7.09627L1.78814e-07 7.09713L0 6.72823L21.6182 0ZM1.00216 7.46364C1.00289 7.54559 1.00388 7.64055 1.00521 7.74783C1.01043 8.16986 1.02089 8.78242 1.04181 9.54289C1.08366 11.0641 1.16737 13.1758 1.33474 15.5375C1.6705 20.2754 2.33984 25.9672 3.66216 29.9253C4.5641 32.625 6.72235 36.019 9.86762 39.3672C12.9556 42.6545 16.9701 45.8708 21.617 48.3184C31.2223 43.1511 37.6009 34.9753 39.5853 29.9016C40.7749 26.8604 41.5395 21.1847 42.0037 16.2053C42.2346 13.7289 42.3896 11.446 42.4868 9.78205C42.5354 8.9502 42.5696 8.27339 42.5916 7.80482C42.5977 7.67365 42.6029 7.55881 42.6072 7.46146L21.6208 1.04649L1.00216 7.46364Z" transform="translate(0.5 0.476562)" fill="#C19B48"/>
<path d="M17.1393 6.33961C16.6838 5.95506 16.1135 5.74631 15.5357 5.74631H14.9506H12.8434H11.6435V2.96659C11.6435 1.7983 11.2991 0.955963 10.6176 0.461546C9.53994 -0.322196 8.05488 0.12461 7.99192 0.146584C7.80676 0.205182 7.68084 0.37365 7.68084 0.564092V3.67342C7.68084 4.68789 7.19199 5.54854 6.22541 6.2334C5.50324 6.74613 4.76627 6.96953 4.6885 6.99517L4.5811 7.02081C4.42185 6.75346 4.12928 6.574 3.79228 6.574H0.914738C0.411077 6.574 0 6.98052 0 7.4786V15.8434C0 16.3415 0.411077 16.748 0.914738 16.748H3.79968C4.08114 16.748 4.33667 16.6198 4.50333 16.4221C4.96625 16.9091 5.62175 17.2131 6.3328 17.2131H8.77334H9.02517H14.0285C15.7283 17.2131 16.8134 16.3342 17.006 14.796L18.0022 8.68351C18.1392 7.80455 17.8096 6.90361 17.1393 6.33961ZM3.8219 15.8434C3.8219 15.858 3.81079 15.869 3.79598 15.869H0.914738C0.899925 15.869 0.888815 15.858 0.888815 15.8434V7.4786C0.888815 7.46395 0.899925 7.45296 0.914738 7.45296H3.79968C3.8145 7.45296 3.82561 7.46395 3.82561 7.4786V15.8434H3.8219ZM17.1171 8.54434L16.1246 14.6678C16.1246 14.6714 16.1246 14.6788 16.1209 14.6861C15.9838 15.7811 15.2802 16.3378 14.0248 16.3378H9.02147H8.76964H6.3291C5.54028 16.3378 4.85515 15.7555 4.73294 14.9864C4.72923 14.9608 4.72183 14.9351 4.71442 14.9095V7.89245L4.907 7.8485C4.9144 7.8485 4.91811 7.84484 4.92551 7.84484C4.96255 7.83385 5.84025 7.58847 6.72536 6.96587C7.93637 6.11621 8.57336 4.97722 8.57336 3.67342V0.915677C8.95851 0.853417 9.61771 0.820456 10.0955 1.17204C10.5325 1.49067 10.7547 2.09495 10.7547 2.96659V6.18213C10.7547 6.42385 10.9546 6.62161 11.1991 6.62161H12.8434H14.9506H15.5357C15.9024 6.62161 16.269 6.75712 16.5616 7.00616C16.9986 7.37606 17.2134 7.96569 17.1171 8.54434Z" transform="translate(13.2949 14.9341)" fill="#AB883D"/>
</svg>
